<mxfile host="app.diagrams.net" agent="Mozilla/5.0 (Windows NT 10.0; Win64; x64) AppleWebKit/537.36 (KHTML, like Gecko) Chrome/134.0.0.0 Safari/537.36" version="26.1.1">
  <diagram name="PÃ¡gina-1" id="IhxCeR64cLKokp5gfQxO">
    <mxGraphModel dx="838" dy="406" grid="1" gridSize="10" guides="1" tooltips="1" connect="1" arrows="1" fold="1" page="1" pageScale="1" pageWidth="827" pageHeight="1169" math="0" shadow="0">
      <root>
        <mxCell id="0" />
        <mxCell id="1" parent="0" />
        <mxCell id="bRsWOrYs7YfIksNsCnhD-1" value="" style="shape=image;verticalLabelPosition=bottom;labelBackgroundColor=default;verticalAlign=top;aspect=fixed;imageAspect=0;image=data:image/png,iVBORw0KGgoAAAANSUhEUgAAAsEAAABgCAYAAAD8bq8WAAAAAXNSR0IArs4c6QAAAARnQU1BAACxjwv8YQUAAAAJcEhZcwAADsMAAA7DAcdvqGQAAIg2SURBVHhe7Z0JXFTl/v8/A8yKwgCCO4sLuBtJ5BK4pElprnkzXPCn3f5umVZut1RMRPOaXUtMySQTTUVKTc2bqAilGCYoIGioSIqigiKLbMP3/5yZAwwwzBkWs67nfV/T9WzP892f5xzOMyMhBkRERERERERERESeIsz4/xcRERERERERERF5ahAnwSIiIiIiIiIiIk8d4iRYRERERERERETkqaOWSbAG13/Zi13ffotvq392/4iE+2X8efXnwKr38VF4KuupGsW/IWTh+9gQ9YDfIfK3oigdCclZaFiEFCE9IRlZDQ8zEc017A+cj/Unsvgdf13K7h7Hf96bhyU7ElHM7ysnJzoI8z/ay2/9j9IouVOJ5tp+BM5fjxMmJVIOooPm46O9l/ntqhSc3oz5S3byW/+D5EQjaP5H2Hu5xogkYhDj8WISjRzvIk8bGlzbH4j560/w2/WjlklwEU59+n/w9fWt+Zn0IcL/aHjY/vzN5/g68g+U8tsVlF7CwaDPsffcQzE5/m6wCdcXozwweWd6A3zHAvuLUfCYvBPpYgA0HE0GorYFIezsX/2msgzpu1ZiyaZgfLr4Pziax+/WUoa8+HAEhTSs2P2laZTcqYomIwrbgsJw9oEJa5/L8hAfHoSQEzf4HVUpTv8VP/50nt/636MsLx7hQSE4caPGiCRiCIF4EeQxxLvI04YGGVHbEBR2lt+uH7VMglUYE5KGu3fu4E7558r3+H+dmqADmwT/v24W/HkiInpQHu7czWtgUSPk3bmLPLEyPl1oLuHbHWfg/H/vYEj+Pnz1/Z2na3BslNx5fKhf/wqJZz7mt0REGshfPN5Fnh5qfSdY3tQOdvb2sOc+dmaICXwX32Aagv8zGi3/zDeJc77H214TsXbHaox7pgVUUjls3Xyw6EB6xasUZXdO4hO//nBzsITU3AIKO1cMmhWK5CL+BEOUZSJyjS8821pBZqGAfaehmPdtMgr5wznfvw2viasR4j8KXZspILNsgz4zvkVyYihmeDmhqUwGG9dhWBl1v/L8N1bhq2XD4Gojh1ztAq83g3E2R3sYyN6LmV6+WLxkLDrbWsLWfQFOFHBiRGKNryfaWslgobBHp6Hz8G1yhRQ4s8EP/Traw5L1Z+3ogXEBEbjNV4566Y1SpB9egdc9naCWS6G074pXPzyIdN6YxdcOYOlod7RqIoWF0gGdfeZh50UmKIcxX5RlIHT6ZHyZUoTUkIno57cVaZps7J3pBd/FSzC2sy0sbd2x4AQrfic/gV9/NzhYSmHObG/nOgizQpNRxEpiRuh0TP4yBUWpIZjYzw9b0zR11vNtrzew6qtlGOZqA7lcDRevNxFc4QjOFTPh5bsYS8Z2hq2lLdwXcE8Yi3HtwFKMdm+FJlILKB06w2feTpSrDhQg8ZvZGORqC4WsCdr0eRNBa6fjhXGfaY8abLPsDk5+4of+bg6wlJoz/9rBddAshJYLzttzdYg/RnVtxtq1ZO3OYP5PROgMLzg1lUFm44phK6OgewOpzIjteAoSsX3Oi3C1ZTFr3R6DFx/FHf0HgcXXcGDpaLi3agKphRIOnX0wb+dFph2HIX9pg9R4rpzZAL9+HWFvyeS1doTHuABElAepiZTG7cC35x3x8oR58B1qjqMhO1n88AeFqLMdGUbtkIPv3/aqU/5zvsmMXANfz7awkrEYte+EofPY+byRdPVkLXasHodnWqggldvCzWcRDnCJZzB3BHLRAAWJ2zHnRVfYKlitaD8Yi4/eYbeUegj40Ric/H2H+Jdv1F4HdGcwWb7B7EE6WZq06YM3g9Zi+gvj8Fki96T1ccSZUP7WjTrX1r/EeGI8Blmrj2E8KUeobz3qE+/1yPG66cNq6+7p6DfiY8RWvItVigufjkG/ad9ot4zmcC3UPr5rkLb9TXj1Ho8NSfxfHzRX8fXUF+D9z1CtPYzLr6tRE1eHwH9UVzRjeWbJ8mwGi7nE0BnwcmoKmcwGrsNWIqqi6An4yIS8rooJ41F1StNxeMXr8HRSQy5Vwr7rq/jwIN++0HjJjcHb5+BF7RhsjfaDF+NolcGtHvJwcN8TLETeyXnUWdGO/nkom9/TcOZ3kpHL7ONUyG9XkL+DxljKqP+n10nDbd8LJh+Fgpq4vEiLt0dSbMwBCvBpRdKWU2h/rvYE2uPbghQdx9NnR2IpISGGDvx7NDlL1TR6exZ3ggFKKGGNN6ltetFbGw9TTNwp+m7lSHJRdaDph+9rz7gX7EPMSeQ01J/CT8VR1MZx5CS1IjvH5+ifmyPo15hwWtBXTYo+qyvPlymo2TPT6Iujp+jkzsU0sIWUHP9vH3FSaG5vpMEyM1L1fIu2R0dT2J4oulOUQGu81WTT6y3aeDiG4k59RytHupCqw3TixCj59V/U3bIT+QUfp7jEc3Tkk9HkKGtDbx7O43qsh95ERXEryLOJNbm/uYmOxp6l48FTWR9qGhp0ldk+mhZ2V5E10+HzQ6coJmIrzetnTzLnqbTvDvOGUV/k0oV9ATTaWUptRy6j4H3xdF9zmzYOlpGZqie9tT2aosP2UFTKLvJtoaCO4z+jI7EJlMDa+PdoZ5KqRxMndu6FfRTAbbcdScuC91H8/brr6SOXkaLZMzTti6N06uROWjywBUkd/4/2aU/X0O2Ng0lmpqKeb22n6Ogw2hN1h6m+kLqrrOmZaZ/ToVMxFLF1HvWzl5Hz1H3EqZ4b8Ta5ypvRC+9toxMxUbR7qQ+1Zf606Lyg1jbv7fGlFoqONP6zIxSbkEAxB/6ttY969HZtTGjtKZeS0mko+YeforiojTTOSUpWdo703D83U8SvMRS+oC+pFX1odUopO3+PUduxTKXj77iSvNkL9N43kXQ6MpQWDmhBFhIp9VuTyo7nU/TC7qSyZrb5/BCdiomgrfP6kb3Mmabuu0MaQ/66U2Q8V0p+pX91t6ROfsF0PC6Rzh35hEY7yqjNm4eZNKZSSCff6UCKZ5ZSXAmz9cFp1Fr+DC3lNrRo6MZnA0npPJPfrkZd7ShkB5ZbwT7yOuV/ScIa8lbbUK+3NtLhmDg69d1KGumiog7TDxNXUbj6oFA0IZcXF9P2yFgWCwHk00pKLafsZ0cN5I5QLlYn7zi94yqnZi+8R99EnqbI0IU0oIUFSaT9aE0qp7NAzdPcoM8GKsl55jFde9XQyu/gV75hvCbnRtDbvCzbTsRQ1O6l5NOWxZVFZ1oQU8QVw0aPM6H8FUJz4zMaqHSmmce4EamuNeevMZ5knDceg406nlSLF6H4r0o94r3OOV5XH1bWGG0IaCmin991JWW/Ndot4zlsgBLj4zvlx9DSXk3I5qUN9HtpKV3Z/ArZN32Olv36iB0Ukl9Xo6RKJxrqH06n4qJo4zgnklrZkeNz/6TNEb9STPgC6qtWUJ/VKZw0wj4SyuvqCI5H1SmiuBWe1MTand7cdJRizx6n4KndyVI9lIKulgqOl3nH3+HH4G8o8nQkhS4cQC0sJCTl/VN3eXQIT4JLr9BnL1qR2mcTpZlQTEylTpNgNqnxXndNt80oipxD7RXPUcBFFuyaTDqzcz2FnOQGL56iKJrbUUHPBVwkLh1qUBhBM5wU1HtVit7xexQ61pasRoTQHW5LW4TKBxBG4VGa7iglp+lHiQtRLmkyNrxIipbTtFva8+XPU2BSeYvs+JbhpLZ6lb7K1OiKllxBg4NuVshZGDGDnBS9aZU2aXnuhdJYWysaEXKHHoX7km1TLwo490B3TWka/bQ5iPYnsoisj94sCCPntCd5jw/oLBuLdOTRsYAJNG3DGcoNe4PslH1oVXLl1ZqMrTRCraJBnzN/CPmi5AL591JSjw/PsWGBoR3s5KQYHEQ3+Qs0mWdo5/oQOqk3MhVFzaWO5W2wKy/49yJljw/pHNdIPfT0kcvp+cCkimOajC00XG1Fr36VydrQTVjlisEUVC4UK8phb9iRss8qqlSd+W/rCFKrBtHn17Po23G21HRIEF2vECKLdr/hQFK9SXDVNjWUeWYnrQ85qTcIF1HU3I6keC6AtKry9uQmqLpuC+nodEeSOk2no7ogY7JvoBcVLWnawUfCtssNp4n2SvL+pLw9dv3NzfSyla4P5mB6w05JfVYlV9pNk0FbR6hJNehzul5S01+CufIonHxtm5JXwDl6oL2mlNJ+2kxB+xOZVU0k7yBNa6Mn16MT9HZ7GbWbdYxNVzlMmQSbbkdBO2j4SbDJ+V9IETOcSNF7FVVN5bFkazWCWCrz9cSb1l0rN6wuF7lY0FItdwRzkd9XTm74RLJXetMn5fKyM25ufpmsynUQ8mNdJ8FG6sD9b8exujWEgiqThbJ2v0EOUv1JcGPGmVD+VrdWTapMgutac/4S44lwDDbqeFIlXoT7rkFd472uOV7nccO0SbDRHK6G0PjO8ejsR9Tbyp6Gzn+PBtpZU9+VcUwzhqD8uholY7JVhtR0cpQ60fRKg9CGFxXUctpB7qiwj4TG92oIj+XVKIqkOe3l1OODs8xyPHnHKGDCNNpwpkBgvMyl8In2pPT+pEJfNrjR5pettDbQbtZVHh7BFxtK477Cl9HWGPv2BDg14msQEglQVmZowQY3MeeOsxPKkajRrkOLinc3zNRqNJWUoriYnWjmAM/XJ8EjJxyrFs7E5DGD4dFlJIJSNaz9sqp/DuTRZMQj4VYpUjaNQc9u3dBN++kP/+gCPLqchFT+zyESq/ZwbW3Ob6jQRGmBlk5tIdXuMINKpYREU7mQwtzFGwM68Oez4w69PdGhOAWJl/lzJDZwcrLl9dAgIz4Bt0pTsGlMT14G9unvj+iCR7iclAqzgZMxyfE3LPFohTY9h2DSou+R6zkOw7o2qZfeKMtG0sWbsH7WE11l/D5YYtAHodgy61lcTUhBfts+8GpXrgPXjTf6ddHg0oWLKOF2GPOFQSSwcXKCLX+BmYMnXp/kgZzwVVg4czLGDPZAl5FBSNWUGY6H+uhp7gLvAR1Q4QmH3vDsUIyUxMsVCzElNk5wKheq9CoSUvLRto8XKlVn/vPuhy6aS7iQkIwLyQVwes4TrcoVhxp9enflY0FHlTa56z1fxySPHISvWoiZk8dgsEcXjAxKhYbJXaGqxArtXVvzskqgaqKERUsntOUbNlOpoJRoUKrh9DBuu9K0RCTntoa7R1s93fuid0fdO/ylVxOQkt8WfbzaVRzn7Ovdrws0ly7gos7BVfwlmCtmAzF5kiN+W+KBVm16YsikRfg+1xPjhnUFi1KTuH8oFAcyW6I1TuGbkBCEfJsKSxcrpIdtwaHytw2EqIMdTbWDyfmvyUB8wi2UpmzCmJ7lNuqG/v7RKHh0GUl8QZGo26FDi8r4UKubQlJa/XswOEpNy8UKSpGWmIzc1u7waFt+Pou/vr3Bu97kmmcytdaBEvx+IRkFTs/BszJZoO7TG131k6Ux40wof3UONZ061py/xHhiQgwqGns8KcfE+K8dE+O9DjneIH2MYHoOC4/v3FWKXguwebEbTq/9FOe6/gub3n8Gcu5yk+SXwKq9KypDqgmUFi3hVGkQqJQSaDiDmOqjOozvdR3Ly7KTcPGmNZ717IrK6ccgfBC6BbM8lcbHy5I0JCbnorW7BypLnAP69u6I8hVqdZ5b8AiscCtG7J7vcMlxNDa8aOqQZhpKJZCf+7BGMJY9zMHDUgmUKssKR0BiDvPK3NBSMUUuy0DYVC9M2v0IXby90au7N6aMfRWnP1iIS/wpNSgqYppZoZfvfPh1rtqwWdNOaM9bRSKVVpnkcEiYLLUhUSihrBCaYW7BEpaYA/htTg+Lysl9URELPKte8J3vh6pimKFpp/awsHHAf07H4eVdOxB+6Ccc37IAO9avxahNUQibosB3ddWblRIuHyzMpZX206OYK8AW0qpBwWS2YDvKyjQ6XxnzhUEk7HyLinPKMsIw1WsSdj/qAm/vXujuPQVjXz2NDxbWInV9/CtRsPiq4gimM7u9qnAEpwbbVyF4MSsUnOpV00HC5LYASyCNLkq56ytbqEnVNsuQETYVXpN241EXb3j36g7vKWPx6ukPUEVVCYuxmkFWOTnTQ9B2zLkaFjucvypgtlDIeaGK2QDBNKqqJutL52Do1KzqL+FcsYHDf04j7uVd2BF+CD8d34IFO9Zj7ahNiGL6641phim7je9DjyDHuhku7/oMv/O7QU3QJPsQtu75A2P/X2t+pxHqYEdT7WB6/hdBl8q+mO/XuWqfZk3RiSsoiexaFh9Vr66wcg1MykU9SjXcXRIXr5VIFAqUu96UmlenNdZCdYC4gYf/t0EaMc6+7WFS/ppMXWvOX2I8MSEGbYY28nhSjgl9C2Da2FOHHK/PuMFRLVS4yZP+rrrksOD4rv23Bo8eFbL/EjQP7+Mhu0Q7QzRJfgmzRw2DcGYzgIk+EsprPeo8lpeUMj1ZDEsNtSg0XrJrtSVOP0IkUCjkFfLVWR4e/RSrieZ3RJy4BvuBL8NTe3vSeHRwUiAnPhaJnNP1eHgqBknUCu07WvJ7jFN2Iwwbd9/DoPWxOPvfXfhy7VLMHt4cJQ9ZpailCpu3dIGjKh8F1n3gO2kSJmk/EzDUvT3cenSoeDpRVzTpKUjR+2qnvMREXDVvB7fyxzFVMEdLF0eo8gtg3ceXl4F9JgyFe3s39Oigxv3YXVi/9zaenbYcwftOI/XmBazrn4fDoYeQkV53vWFmB2dHK2SnXqpYDMEFV/KWGZiw7AicmDwWNxKRqP890AUXkMBmJm2cXWoU8JqwBOT/ZZgy3AjbiN33BmF97Fn8d9eXWLt0NoY3L4G+2Pp/BKiPf5kjkFLVEUi8ao52bpV3jVWwcIKLowVuMH9VVT2BTcrawLlDZ3TvrMT1s7F6dnuI2Njkak/k9Ci7gbCNu3Fv0HrEnv0vdn25FktnD0fzEu6r/4xPpg0jbDsLp45wkd/CxaTsyvaLLuHydTbAMCycWNxb3EBi4n29/gtwQedguBhwsFCuqO/HYtf6vbj97DQsD96H06k3cWFdf+QdDsUhExbHadL3IPR4GYasikJcfDziyz/nIrCkXwlOhGxHCvdkpxGpjx2MYt6SxY8K+QXW6ONbbqNJmDDUHe3deqCDSQVFP3cs6piL7PyOLpDfuoik7Mrziy5dBu/6x1bzamKBjt07Q3n9LGL1/P8wNhbJRh7INijO7rU1nr91dGhda85fYjwRjEEgq7HHk3LqFf8NiXdh6jUvYLM/Ki7Co4pZbzFu375Xj1rNITS+657g5/2yAtPXpqHfokXwvrEeM5ZHIZftr9e4Z4xGqVH6mDaW62Nm5wxHq2ykXrpdadPSZGyZMQHLDvxmfLxkY3RHFzluXUxCZYkrwqXL19kMhqPu8pRjXPOHZ3E2xRzuvT2h4HdVUHoJPwZvxt6z2fyOuvHS+GFodnE9/Cavwq7jsTgffxpHvv4Qvu/uxv1O/8AbvU2cdXN3j5Ji3E1LwwOmqCbrN3w1Zzl+eMDdiRXyJ1XD2gcTR9vj7KezEHjsJjOlBndj1mHKSwMwKiAa+fxpdYXuH0TgwjBcLtAg/9JuvL98PyQ+kzCquWEzW/tMxGj7s/h0ViCO3Sxiwt9FzLopeGnAKAREP4Lkyj6snD0HKw6nMxmZyR/exB9ZxbB1dIS1rB56Q4WB40ehRcznWLwtCbksMnKTtsF/5df4LdcadsMnYpgqAoGzgxGbzUKr4Aq+W7gMYfm9Mf41t2p3wAaQyCCXEfIePOADsybc0xpJ8V2kpT1gYatB1m9fYc7yH/CAu1PVii2BTC4D5T3AA66R+viX7uNg4EKEXS6AJv8Sdr+/HPslPpg0qnktAW+H4ROHQRURiNnBsdCp/h0WLgtDfu/xeM2NHZ8+Ea2il2Pigq9x/NRJ7PloEt7dnQnSn7FXgXvSKEHx3TSk6QTHb1/NwXKd4CatyK+OoO1sXsGUsTY4vvodbD2fA03hdfzwoT/23OIrgN1wTBymQkTgbATHZjMfFeDKdwuxLCwfvce/BjdDDhbIlUeSK9i3cjbmrDiMdF2Q4uYfWSi2dYSjNbO20TqhwaWdO3Fa+iJeH1nNN+YuGD9hIOTntiPkTLU75YZSHzsYxRo+E0fD/uynmBV4DLpUjsG6KS9hwKgARJtSUKrlTl1z0eaVKRhrcxyr39mK8zkaFF7/AR/670G56x9XzTOEevh0TGwVjeUTF+Dr46dwcs9HmMTqeiYZuUluUJzZC+Qvs1bhRRwMDsb38ZXfElMrda05f4nxRCgGzR7DeFJOPeK/gfEuSJ3HDTOonZxgc+8E9hxIY/YpQvqRFVj3Y071h8MmY3x8Z0bJPYll09fj5sCV+GLFCnyxciBubZiBZSdYjNZn3DNKI9SoagiP5dVQDcT4US0Q8/libEvKZRPTXCRt88fKr39DrrWdwHhpg1emjIXN8dV4Z+t55GgKcf2HD+G/5xbrW0ed5SmHfzfYICXxS8ld7kKzT9RYvkaU+zWNkEupl/8Ffkcd0dyjk6tHU2e1BSuN2jgjSOTUsu9M2pGs1x/3srayJU07xL/szdDKpXSnpfElrJ0silj8PNlamJHMsgkpZLbUc0IgLfJRk3pkCGVWviNdBc29KAoc3o4szdh1CjlZSBTUZvBSiuAv4F6CV7acRhXdFv1C77spqc/q3yteqn+wdTgp+cUi2oUjNs/TK94tSSaVkdRMTq0HLKJDGbr2tAsZlG3orSP6ttTQvahAGt7OkszMZKSQM1so2tDgpRE6uUtSace0HqQ2NydFUytSSqVk7zmb9qYxCeqpN2myKXrVMHJWmpNMpWRyKsl52Mf0i3Z5qIZuRyyjlxyVJDFXkIrJo2jtTXPDr+kWugn5gh7RibmuJDeXU9Pu71PUI24BjJLavHVE97I/Q5MVQYuftyULpq9lEwXJbHvShMBF5KNW08gQbuEaty5qLrnKzUnetDu9H3mrznr6KGzo+Ve8qaVMynxhRvLWA2jRoQz+ZX/dIjZlm7eoqituU8Syl8hRKSFzhYrkFgpq7T2Xwq9pNWfkU8LX06l/OzXJpU2otedEmjOG6dr9A3bMUJsayopYTM/bWpCZzJKaKGRk23MCBS7yIbV6JIVwgtewZxH98r4bKfuspt8rg4yGKx3Ib/8jk2ynuRdJy4e0IYUZp7uU7Hr70ehuKv7bITg1I2jZS46klLCYUrG4V7Qm77nhpFVTu2Cpqr84jOdKCaXumEY91ObMbk3JSiklqb0nzd6bpssTY3WiJJb+1V1KzV7fTQa/dybrW/pHMwtqPXU/pQgtjKuDHTmM2kG76ERZp/zn6llU4HBqZ2nG/K1g8SMhRZvBtDRC55ca9YTZLX6pOyndl/Lb1XKnSCAXa8BqSeRyGtJGQWZc/ZHaUW+/0dRNVbkYy6gf67owzmgdYNmS8DVN79+O1Mz3TVp70sQ5Y1hOd6cPzrLjjyPOhPL3ziYaymTh/GeIqgvj6l5b/xLjiUAMNup4Uj1ehPquQR3jva45Xp/xsSiRNo1pR0oz1reKyeA8nJbMfIEs9RbGGc/h6hgb3+/T0bc7kaL5CNpylVeg9AptfqUZyTu9TRFZQvLralTLaYf4hZVcSL1Pbso+tLrSILR1uJIc/PhvrxDykQl5rY8p41F1NNnRtGqYMynNZaRiOWzGcm7Yx7/QfXa24HjJ5I9cPoTaKMxIysZ2qV1v8hvdjVTlC+PqIQ+HhPuPbjr8hCi8g5SES7jN7lStnbqgu4sNDP7J2ihlyL1+HuevF0LdoSe6tVLx+4XQICftAhLT8yBv3RU92ttWvrBdR7K+fBltl7XG3tT/oNulC7glb4eeXVrUfIJuCE0O0i4kIj1PjtZde6C9rb4UZci7mYSEKw9gZu+Knp2b67VZX72B0uwriE/KgMahE9zd7KvqXZqN1PiLyEQLdOrRAXZ1MQq7u0uLO48/ylqjRy8XcA8Da8DOuX7+PK4XqtGhZzfUFJvplRaH83+UoXWPXnCxZjfNddDzZVUrtN6biv90u4QLt+Ro17MLWpjkCE71VMRfzARadEKPDna8XcqQmRiDW9Y98Ezb8nfji3B8dicMS3wHjyLn8vtqUpZ7HefPX0ehugN6dmsF0z1UC4K24yhEZvJ5pObbo+uz7aCu4YNSZKfGQ6dmD3QwycHGc6Us7yaSEq7ggZk9XHt2RnMT7f1kqY8djKPJScOFxHTkyVuja4/2qJLKQhjKnbrmYmEmks+nIt++K55tpzbwl4/Gq3m1UZaZiJhb1ujxTNuKxZFFx2ej07BEvHPpOOY6GioK5TQszgznL0cZ7mweg39iM/b/v+b8PmPUp7b+NcYT4zH4eMaTcuoU/40R70apjz7FuHspDpfuN0VH9y5o3hivgRod343RcH8YokE1qjomjUfVYXX3SjySMjRw6OQON/tKAUwZLwszk3E+NR/2XZ9Fu+qDWz3kefKT4P8RKorW1S145W8xAfjfRTcJvootjeaIUsQt8UCfHd2x9ehm+LaXIyv2M0we8S9k/PNnxH3Uiz9PRESkNG4JPPrsQPetR7HZtz3kWbH4bPII/Cvjn/g59iP0qvtTjoZTeBr+viHotH4Txrc1Ngn/ayCOJyIifw5//WrwN0EiMYO5maTKoi6RJ4OZuRnzQ2M6wgI9Z6/Gu04nMNVVDVUTS7To+xGuD1iLLQvECbCIiD4WPWdj9btOODHVFWpVE1i26IuPrg/A2i0LnswEmEPxPJbuDf5bTIA5xPFEROTPQXwSLCJiMqW4n3YRv2eWwMq5Mzo1b5w/T4mI/C9Sej8NF3/PRImVMzp3at7wV4FEREREGhlxEiwiIiIiIiIiIvLUIb4OISIiIiIiIiIi8tQhToJFRERERERERESeOsRJsIiIiIiIiIiIyFOHOAkWERERERERERF56hAnwX8FNNewP3A+1p/I4neIGKUR7JUTHYT5H+3lt/765P3yBeYv28VvNQ6aa/sROH89TmSV//CkSONQgNOb52PJziR+uxLN9QNY9R6L3eN3IFr974IG1w+swrtz52Kuoc/7nyEyW/RmwenNmL9kJ7/1BPgTx1HNtX1Y+d4CfB55t5HyOAfRQfPx0d7Luq2/2fhUd2qvkQYpSkdCctZjqZniJPivgCYDUduCEHb2Ab9DxCgNtlcZ8uLDERRygt/+61N0/Qx+PHqB32ocNBlR2BYUhrMPxC+IaVyKkf7rj/jpfCa/XU4hTq1fgMAIQo9nHcTi+7dBg1s/f4MNW39Cyt0sZGVV/zzEIw1/6lNMcfqv+PGn8/zWE+BPG0cLEP3pAqyJNId7L/vGyeOyPMSHByHkxA1u4283PtWd2mqkAdjNzRejPDB5Z7o4CRYReVqx8/0aiacC+S2RvzZqvP5VIs58PIjf5tHcwB2b17EpNAAD1fw+kb8NkmYvYuHW7di+vdon5EO8bC8OperXv0LimY/5rf9hNH/grt0EbA5djhea8vtE6kgtNdIQlIc7d/MeywSY44llbs73b8PrjVX4atkwuNrIIVe7wOvNYJzN0R3P3jsTXr6LsWRsZ9ha2sJ9AXdXVIxrB5ZitHsrNJFaQOnQGT7zduJige4a7g4t8ZvZGORqC4WsCdr0eRNBa6fjhXGf6Q5n78VML18sXjIWnW0tYeu+ACfy7uDkJ37o7+YAS6k5LBR2cB00C6HJRbprcr7H214TsTrEH6O6NmPtWrJ2Z+Db5ESEzvCCU1MZZDauGLYyCve1XirDnZOfwK+/GxwspTC3UMDOdRBmhSaDb5GJmYjtc16Eq60CMuv2GLz4KO7oP4wrvoYDS0fDvVUTSC2UcOjsg3k7LzLtdBi2TXVy8P3bXnhj1VdYNswVNnI51C5eeDP4LDvCU2Zcd4P9CFxTG6Xph7HidU84qeWQKu3R9dUPcTCde3zScHuV3TmJT/z6w83BElJzCyjsXDFoVigERKpCWWYk1vh6oq2VjOlkj05D5zEfF+oO8jGwdsdqjHumBVRSOWzdfLDoQDoqHgAxGb+ZPUgnY5M26PNmENZOfwHjPkvU2mz39H4Y8XEsi2Ce0gv4dEw/TPvmD+2mkA6cL/r6rNBtMIzKWwsFidsx50VX2CpksG4/GIuP3kGVZ8BlmYhc4wvPtlaQMT/YdxqKed8mo/ZWhWPMYAwJxLdQHtcnLrX1ZuJqhPiPQtdmzEeWzEczvkVyYihmeDmhqUwGG9dhWBl1X3s+a1AwLmuPac4ufTHEP0p3Ynnd8vCG30cr8eaL7lXrlinxZYCCxG8we1BH2CiY3Tu8hEXbP8NbXtPwzR+sEJkQc3X3dynSD6/A655OUMulUNp3xasfHoRWZUbxtQNYOtodrZpIYaF0QGefedhZrqQpOhqJi7Kb2/Fmbw94eFT79PbD1jSuBWOymVBjGoUcnNngh34d7WHJ4sna0QPjAiJw2+DorcudiWt3YPW4Z9BCJYXc1g0+iw5U2JOTOzNyDXw928JKxmqCfScMncditsJBxv1hvEYYl9WUelQ9B7kc6zvEX3eC4FgtRCOMo0bjm7f/6hD4j+qKZqwmWrbpgxnseGLoDHg5NYVMZgPXYSsRpRvYOaPoakwXL0wJ+AgT3VtWmyucwQa/fuhob8mutYajxzgERNxmmjQUY3HwAAffHwDveQdQXrk48v67CIMGvIsDbKdxX2Zj70wv+C5egrGdbWFp644FJ6o7qZZzhOqHsTGxeo2szXZlGQidPhlfphQhNWQi+vltRdpdA/M4Jo7R+mMM7scyngT3gn1ILlNQs2em0RdHT9HJnYtpYAspOf7fPsoiDd3eOJhkZirq+dZ2io4Ooz1Rdyg/eiF1V1nTM9M+p0OnYihi6zzqZy8j56n76I6GKDfibXKVN6MX3ttGJ2KiaPdSH2orMyOLzgu0fWpub6TBbFvV8y3aHh1NYXuiKGWXL7VQdKTxnx2h2IQEijnwbxrtLCX16O1MDq2g5COXktJpKPmHn6K4qI00zklKVnaO9Nw/N1PErzEUvqAvqRV9aHVKKTt/D/m2UFDH8Z/RkdgESog5QP8e7UxS9Wjarm0wj46/40ryZi/Qe99E0unIUFo4oAVZSKTUb00qO55P0Qu7k8r6GZr2+SE6FRNBW+f1I3uZM03dd4dZxrBtanKPgn3kJFM0Y/b6go6eOkk7Fw+kFlJH+r99WkGYqMZ0N9yP8WtqoSiOVng2IWv3N2nT0Vg6ezyYpna3JPXQILqa2VB73aM9vi1I0XE8fXYklhISYujAv0eTs1RNo3UNGEBDNz4bSErnmbrNkgRa460mm15v0cbDMRR36jtaOdKFVB2m0+H77DgXAwoFNXF5kRZvj6RYJmOATyuStpxC+3O5BnIp4m1exm0nKCZqNy31actsZ0GdF8Sw7m7QZwOV5DzzGBVyp3MU/UzvuipN1EHnC0XLadpLBeU1RN5xesdVTs1eeI++iTxNkaELaUALC5JI+9GaVBa3VEIJa7xJbdOL3tp4mGLiTtF3K0eSi6oDTa+1UaEYMxRDaQLxLZTH9YtLbb2RKslpqD+Fn4qjqI3jyElqRXaOz9E/N0fQrzHhtKCvmhR9VrOzuQsE4tJYTJdydlGQg99+bVNCdUs4vgyQd4LmusnJtvccCjlxmk58zdpsbUkKGe9PwZiru7+L4laQZxNrcn9zEx2NPUvHg6dSd0s1DQ26yilJC7uryJrV888PnaKYiK00r589yZyn0j5OSUEdBerewwt04KtgCg7mP18spRGOUrJ0X0gnHwrIJliThSii0/M7kcxlNh2vMGZNSn79F+uzE/kFH6e4xHN05JPR5ChrQ28ezuPP0EcXI4omLvTi4u0UGctyPsCHWklb0hTe6SUJa8hbbUO93tpIh2Pi6NR3K2mki4o6TD9MnIeM6ixQI4zLalo9qpGDLMcUDn6c6MIxL0SDx1Gh+NbVLqnSiYb6h9OpuCjaOM6JpFZ25PjcP2lzxK8UE76A+qoV1Gd1CtehQI0poV//1Z0sO/lR8PE4Sjx3hD4Z7UiyNm+SQfdXRy9fOfvqj0/G44D54uuRZGPD7HJPezrjPu15w4HUw7fQLY2ALzW3aeNgGZmpetJb26MpOmwPRVV3kMFzigTsKzAm8vGvq5HGbJdLF/YFaO3cduQyCt4XT1kG5nF3cgXqjxGe7CRY/jwFJnEDMIeGMrYMJ7XVq/RVZok2yeSKwRR0s1yBXAp7w46UfVZRcvkl3DVbR5BaNYg+v55F346zpaZDguh6hc5ZtJsFg1R/EixX0OCgm+xK7R7KPLOT1oec1EvMIoqa25EUzwXQRa4f7SRYpk0sXbeFdHS6I0mdptPRR9odpMnYQC8qWtK0g49Ik3mGdq4PoZN6hi+KmksdFc9RANdgbjhNtFeS9yfl7bHrb26ml610fVBuGL1hp6Q+q5IrjrMOaOsINakGfc500xWgqrYxhC7J5c8HUqWJM2jLcDVZvfoVZbJ2jOtuqB8T7GWAosg51F7egz44W8TvYSXsWABNmLaBTqc30F6aTDqzcz2FnNRNoLQURdHcjgp6LuBipQ2rULXIFEbMICdFb1rF3cSUcy+Uxtpa0YgQdoPBx4D3umsVfWh1Kpfx/rc0zrYpDQm6XilD1m56w0Fq2iRYUAedL8onwYLyGiA3fCLZK73pE+2El0NDNze/TFblk6bCCJrhpKDeq1L0bHaPQsfaktWIEDLcqnCM1Yghwfi+L5DH9YtL3U13+YSfUXiUprNJlNP0o6RLY1ZLNrxYYWOhPDYW02cK9Qu8UN1i7QvFlwHyvptE9uzGuzIGNHT9i6HU1NRJcJ39XUSRc9qTvMcHVKlyHh0LmEDTNpxhbn2D7JRMnkolmVu30gi1igZ9zvJCSEfBuOD3cWju0JG5PcmqzRjamlrCdhiXTbAmC6KbBFuYSUmhUpGq2sdm7HbmZaJH4b5k29SLAs490OlYmkY/bQ6i/YmG7mR0uSPzXkfXKg1Cc9rrcp45iCJmOJGi9yqqmuZjydZqBIWwSYgxnYVqhFFZTaxH1cegykmwCTEvQIPHUcH45u3fbw1VloTp5Ch1oumVAztteFFBLacd5DYEaswjCvdldcsrgM490J1QmvYTbQ7aTwbdX51aJ8FCccA2snfTeAc1jdh6W+evrB30ml0zem0HmxUL+VI7wZWTYnAQ1TqdMHSOkH2FxkSt/ctrpIDtSi6Qfy8l9fjwHJsuc+JUn8dx5UOg/vD7DPFEX2Qyd/HGgA7m/JYZHHp7okNxChIvl2r3SGyc4GTLi1h6FQkp+Wjbxwvtyi/hrvHuhy6aS7iQkIwLyQVwes4TrSq0UqNP766Q8ltaJDZwcrJlV3Kw6z1fxySPHISvWoiZk8dgsEcXjAxKhaasDGXlf1qRWKG9a2voupVA1UQJi5ZOaMs3bKZSQSnRoFTD/u3gidcneSAnfBUWzpyMMYM90GVkEFI1rD3WYGlaIpJzW8Pdoy3fHndNX/TuaKH9d+nVBKTkt0Ufr3YVx9kJ8O7XBZpLF3CxRLerim1qxRwu3gNQaWIH9PbsgOKURFwuNU33qv2YaK8qlCE76SJuWj8Lz64yfh9gOegDhG6Zhd5tG2YvTifP1yfBIyccqxbOxOQxg+HRZSSCUjXs+rKqf+43iAYZ8Qm4VZqCTWN6olu3brpPf39EFzzC5aRU3Z+TJWq069CCjxvWrVqNppJSFBczGX+/gOQCJzzn2ariONR90LtrlcirnTrpYKK8VShFWmIyclu7w6NthRXh0Lc3ys2oyYhHwq1SpGwag57lbXbrD//oAjy6nITUmo3yGIsx3S79GBKM70e/m5TH9YlLiVV7uLbme5Wo0ERpgZZObfl2zaBSKSHR6IQ2nscaozHtKed3cAjVrYqErj2+aqLB9aQUPGzxLJ53rvRna+8X0In3pxB19ndZNpIu3oT1s56oVNkSgz4IxZZZz+JqQgry2/aBV6WSzIbe6NdFg0sXLkKrpbEcMrHuAQU4/x9fTP5ajne+3Yr/a88UNiqbp4AvhStEOWYtx+A//z2GY8eqfo6sHAoVO64YOBmTHH/DEo9WaNNzCCYt+h65nuMwrGsTXQM1kEDdrgNaVBoE6qYSlBYz42syEJ9wC6UpmzCmZ7l/uqG/fzQKHl1G0uXbRnTuJVgjzIzJamI9qnUMMjXmjdDQcdS0+JbAqr0rKktCEygtWsKpcmCHSimBhhvYOfmN1hgFBk6eBMfflsCjVRv0HDIJi77Phee4YajV/aYgFAecIjavwHeYJU7u/QGZTJY7P+zBMdnLbJ8dZxQTfCmBjZMTjE8nqp4jZN+Ui3UZE+thuyrzuFLT6k8tGFX7cSNRKKHUl8DcggU0MefoNiXm5rCQ6P7NvWPEjU8W0qpVXsKusWATrTKNzp3EBaT2X7UgMWfdlDdahoywqfDw+Ac+Co9HtrwdvKcsx7JxjlUNI5FCWt13EkllsdajLCMMUz088I+PwhGfLUc77ylYvmwcHMsbZAmlYa1b6KshUUAh52UqZpNpplFVNVlf3AVMN17NarapDQkUSmUVXcwtmNTE2cg03av2Y6K9qlHCFRHWr9SAvA22V1kGwqZ6wOMfHyE8Phvydt6YsnwZxlU0IExRESskVr3gO38hFi4s/yzF2uAQrPpHe+YNBhc31RxeVR0ubo2//VV1uOUKJ7+njjqYJG81SjXcHRqXK5VIFAqUm5E1yjLMCr185+u1uRBL1wYjZNU/wM01DGMsxnRUiSET41soj+sTlxKWxDXT2FAWcy4xHpfGYroqptUt4fiqDkHCbGaud5JEezPOb/DUGnN19neJ9ibfwlxqUK5inZJVY4/ppHOrRieHMR1Niosy/BE2E68tvYLBG/dg2QvW2rOEZBOsMaYis4frc73Ru3fVj6cb/w0BNkPxn9Nx+HHT+xjukofTWxbgNU93jNt6ldUwQzD9ajVIEXRp7ov5ev5ZuHQtgkNW4R/t2UTQiM6CNcKYrCbWo9rHIBNj3ggNHhdMim8JG9drVAQuTA0gXGNshv4Hp+N+xKb3h8Ml7zS2LHgNnu7jsPWqYe+bhlAccIo0wZAJI2H7817sv3kL+/ecRNPhvniJSw+TfMnFoYXBOKqk2jlC9tXaUHhMLKfOtuNqiV7wmVR/aqFqVP/JaNJTkJLHbzDyEhNx1bwd3MofT+lj4QQXRwvcYOeUv6fOUXAhAb+jDZw7dEb3zkpcPxurtxDhIWJjk2u/Cyi7gbCNu3Fv0HrEnv0vdn25FktnD0fzkodcqrL/1ZUy3AjbiN33BmF97Fn8d9eXWLt0NoY3L8FD1hgXDxZOHeEiv4WLSdmV7RddwuXrzIkMCycXOFrcQGLifb3+C3Ah4XegjTNcquesUTRIT0lBpYnzWLtXYd7ODR3N6qF7vexlBjtnR1hlp+KS3gqR0uQtmDFhKb7eEtQge5XdCMPG3fcwaH0szv53F75cuxSzhzdHSXkDgpijpYsjVPkFsO7ji0mTJuk+E4bCvb0benQov9usHYuO3dFZeR1nY/UWQTyMRWxyeeRxgz+huOhRZTIW38bte7qz66ZDfeS1gFNHF8hvXUSS3veZFl26DN6MMG/J4k6VjwLrPvAtb3PSBAx1bw+3Hh2MPCUwEmMG01ggvpUd/wZ5bCyml+HgLb0ehepW3RKaxxxt3TpAxfmTjyGOwpRLqBwzjMdcnf1tZgdnRytkp17S80spkrfMwIRlR+DEYtLiRiISqyoJnVtdIKSlKXUv52d/jHvrAFou3oXgN5yYhjxGZTsgWJMbhzJkxe7C+r238ey05QjedxqpNy9gXf88HA49pCeXiZi3ZHGjQn6BNfr4lvtnEiYMdUd7tx7o0MzeiM4/CtQINe4bkTUjvYE1tcEx3/BxtP71rBaEakxZFmJ3rcfe289i2vJg7DudipsX1qF/3mGEHrrNN1IPhOKAV0ThNQFjWsVg37atCPu5GUZNGAhLtr/h46NhhOzr4CY0JuohaDt2Y6I7sxbY+NaA+lPXUGhU6P5BBC4Mw+UCDfIv7cb7y/dD4jMJo5obEssOwycOgyoiELODY5HNYr3gyndYuCwM+b3H4zU3dnz6RLSKXo6JC77G8VMnseejSXh3dyZIUpsJuScPEhTfTUPaA2Y8TRZ++2oOlv/wQHunU7HKsQ5wd7+S4rtIS3vAnK9B1m9fYc7yH/CAu6PjGrR5BVPG2uD46new9XwONIXX8cOH/thTPnDaDcfEYSpEBM5GcGw2K2sFuPLdQiwLy0fv8a/BzeBdam0Q7h8MxMKwyyjQ5OPS7vexfL8EPpNGoblZfXSvn71UA8djVIsYfL54G5JyWcHITcI2/5X4+rdc2FhLG2Yv7u5PUoy7aWnQifQbvpqzHDqRTPOgtc9EjLY/i09nBeLYzSLWyF3ErJuClwaMQkB0Pn+WEdTDMX1iK0Qvn4gFXx/HqZN78NGkd7E7k7g/GLAsU8PJyQb3TuzBgTTWflE6jqxYhx9z+OlJHXWoj7w2r0zBWJvjWP3OVpzP0aDw+g/40H8PKuZr1j6YONoeZz+dhcBjN5n1Nbgbsw5TXhqAUQHRqN0KxmKMP0UfwfhW/y3y2FhMW9voKy5Ut+qU0BU09fHDOIdo/PudLxH3QMNC6jD8/Xcjo3wSLBRzdfa3CgPHj0KLmM+xeFsSctkAmpu0Df4rv8ZvudbMrRMxTBWBwNnBiNUpie8WLkNYfm+Mf82tcsJaGwJx0T71S/iNX4ObA5ZhxUhLpCUlIUn7SUb6A4VR2QRrMuvt0o/B2Lz3LIz+5kVJDm6klPer97mYjD9y2FB9ZR9Wzp6DFYfTWcus1Yc38UdWMWwdHWFd55HWGj4TR8P+7KeYFXgMujSPwbopL2HAqABE5xv3h/Ea8ci4rLKG1lRTYr4QFw8GI/j7eFR8W5EeDR5H613PakOgxphJcGXfSsyeswKH07UWxcObfyCr2BaOjtwjWeP61o5QHPCnyTwxYZwLTq1di1/ajoVvH/6drEYYHw0iZF+hMVEfIdtJZJDLCHkPHrAjhmlQ/eHfDf7T0b5Eb/M8veLdkmRSGUnN5NR6wCI6lMG9wqx78V7Z5i06or8aV3ObIpa9RI5KCZkrVCS3UFBr77kUfo17XZojnxK+nk7926lJLm1CrT0n0pwxriTv/oH2qPaFamUbequiUQ1lRSym520tyExmSU0UMrLtOYECF/mQWj2SQjKZLNyCDmVLmnaIf1meiuiX991I2Wc1/V7+DvaDrTRc6UB++x+RJiuCFj9vSxZmMrJsoiCZbU+aELiIfNRqGhmSqX1BW3MvkpYPaUMKMynTXUp2vf1odDeV7oV+7vjtCFr2kiMpJeakUMnJQtGavOeGk07NWmxTA92L5zbPv0LeLZl9ZVIyk7emAYsOkdbEgrrrFidW7ccEexlEQ9nRq2iYs5LMZSpSSs1I6TyMPv7lfsPtpcmiiMXPk62FGcksm5BCZks9JwTSIh81qUeGkGGRqn07BNu+FxVIw9tZkhmTQyG3IImiDQ1eGqG7vkYMEJXELyV3pTstjedjLz+Bvp7en9qp5SRt0po8J86hMa5y6v7BWe3hosRNNKadksxYzKpY7DoPX0IzX7A0UQedzyu+HUJIXoOwayKX05A2CjLj8k1qR739RlM3VeViMc29KAoc3o4szZgcChZ3EgW1GbyUImptVDjGDMWq8fjmMJbHhtoUjkuu3iiZ/SrT+Bd6301JfVb/XrGw48HW4aTkV7cLx2XtMV1ul/JvhxCsW6bElwHun1pDw511/pQxfz433ItaKyr9aTTmGHX2tyabolcNI2elOclUSlazleQ87GPSqsz5JWIZveSoJIk564/FpKK1N80Nv6ZdzGKKjrXHhW7Rooy746rxkdPwrQ+Myibsy1z6egTL217+dMGgufmFcQb7Zx+JJY3Zkc8USqUd03qQ2pzJ39SKxYSU7D1n0960ysU6lXAxoqSW0w7xCzMZJfG01F1J7kvjdduaexQVOJzaWZqxuFawuJGQos1gWhqhq4tC/jBaI4zJamI9qp7XlQvjGIJj9R3aNJTZXH8c1aNRxlGj8V3T/kW/vE9uyj60unJgp63DlXweC9eYktQdNK2HmsxZ/De1Yv6Q2pPn7L2kc79xfY19O4RgHPCUXgyk5+VS6rXsvC7nOIR8WcItelNSm7eOVC6grY52YVzNcwTrh9ExsWqNNG67R3RiLqv/5nJq2v19ikyvPo/jEKg/Rniik2DtoJSfS9fP/UIxSbcqi4EAJVm/U2z0zxT7+z1WnsphRkj4heLS9ZdiFtKxWc6k6P8pv20YzcM0Ohd9kk4l3GTDbyOgeUhp56Lp5KkEullrg4/o9sUY+jn2Ct3Xj+QKSijr91iK/jmWfr9XqaXpVCZ5fu51OvdLDCXdqmnh+uheb3uVZFFqbBRFxaTQHX2VGmwvDT1MO0fRJ09RQu0NCFP6gK6d+5lORsVSalYdbM6KRMIvcVQ19I7RLDZB6f/pdX4Ho+gOpcRE0+mk2wYKjjEd+G8uaP0mv81TH3kf3aaLMSx3rnBfrmOIUnpw7Rz9fDKKYlOz9PLLEKbFmGFqi++/WR7XFtMGMFy3GkhRJiVz/rz6gB79/C65KvW+AYPDaMxx1MXfOkqyUik2KopiUu7UPJ/Z4/fYaJanv1O9ylYD616tsplUYxoDNqW+cYFOMXvGXLxt8phmjNIH1+jczycpKjaVDKW5UX8YrRHGZG2cmmos5jWZm2jkiE1023AhMtFnQuNo3ePbGII1RpNLNy6cYvaOoYu3q1lUSF8BhOKgdhppfDRILfY1dUzUx4jtuFi4djaaon69SvwXSBimHvXnyU+CG6NKaCmhcx/2JLnLRNqRyjm6lO79uo5eaaGgZ5bonsY9XdS80xV5TJScow97ysll4g7Shd49+nXdK9RC8QwtOSt0H2oKhXR6QReS81/199fhccSYmMf1pcjQJFhE5C/JIzq1bDT989t0NkV7GnjK9H3sY2Lj8cTeCZZIzGBuJqn5fki9sUDP2avxrtMJTHVVQ9XEEi36foTrA9Ziy4Je/DlPE8y2ZuYwYwZuNBOLGMaiJ2avfhdOJ6bCVa1CE8sW6PvRdQxYuwULehlYHVYXiiLxjpsNvD+5gR7/GMPv/KvwOGJMzON6w9VUc7NGrKkiIo8LBZ5fuhfB49s+2YVJfxpPmb6Pc0xsZCTcTJj/9/8IpbifdhG/Z5bAyrkzOjXnvsFRRORPoPQ+0i7+jswSKzh37oTGCb0C3E65hJuS1ujm5gD9r6D930bMYxEREZG/NY9lTGxc/gcnwSIiIiIiIiIiIiLGeTr+EiEiIiIiIiIiIiKihzgJFhEREREREREReeoQJ8EiIiIiIiIiIiJPHX+hSbAG1/YHYv76E/x2I5ATjaD5H2Hv5fKfUXrC6MtTcBqb5y/BziT+N1A06Ti0fCKGer+AQVOD8O3G+ViyM0l37LFRgNObDfejuX4Aq96bj/XH78DYjyg1Pnn45Yv5WLYrudZfhwGKkJ6QjKxGEqzg9GbMX7KT36qJ5tp+BM5fjxON1WENNLjy3Qq8O3cu5mo/8zDv3few4MOVCAr7FbeK+dP+F/mr5Wg9yIkOwvyP9vJbf32K0hOQ/NhiufaaYoiGyvL4c7N2/m5+FzGBonQkJGf9yWPeXx02N9u3Eu8t+ByRd//3LPOXmgRnRG1jg/5ZfrvhlOXFIzwoBCdu1D6d+jOpIk9xOn798Secz9QN/gUHl2Dqyp9h0Xc0Rg1xQ8HZH/HT+UztscdHMdJ/NdRPIU6tX4DACEKPZx3+3CApy8eF7zbgy4hrtUyCWUJ+MQoek3civZHysTj9V/z403l+qyaajChsCwrD2QePaw1pKf6I/Bobth3D7/eykJV1D/fuZrKJ/o/4ZGo/9Hx5HeK5X5P8H+SvlqN1pwx58eEICmnEm/fHiObaFxjlMRk7Gyt5alBbTalJY8jy+HOzNv5efhcxAc01fDHKA5N3pouTYH0KovHpgjWINHdHL/v/vZcHxNchnhTq1/FV4hl8PIj70qsy5GZkILfly5i3/D3MeWMwpm1NxJmPB+nOfWyo8fpXBvrR3MAdm9exKTQAA9X8vr8MhLw7d5HXiFVK/fpXSDzzMb/15JA098EHW7dj+3buE4pd+6MQu9MPltGB+Hh/3X5xXkTEEJR3B3cbM3lqUEtNMcDjl0VEpA5QHu7czRMnwNXQ/HEXdhM2I3T5C2jK7/tf4glOgguQuH0OXnS1hUJmjfaDF+PoHf27+TJkRq6Br2dbWMksoLDvhKHzvkVyIX+4zpThzslP4NffDQ6WUphbKGDnOgizQpNRp4dspek4vOJ1eDqpIZcqYd/1VXx4MB3a57lld3DyEz/0d3OApdQcFgo7uA6ahdBkAz3kfI+3+w6Bf1QBzq97Da+siUVx5veY3bcP3v4+Hd+/3RdD/KP4k0uRfngFXvd0glouhdK+K1798CDSdZ0K6lWafhgrXveEk1oOqdIeXV/9EAe1F+dU66cY1w4sxWgPb/h9tBJvvugOn3k7cbGAP8zJ7DURa3esxrhnWkAllcPWzQeLDvD6m0jxtQNYOtodrZpIYaF0QGefedhZ0YkOyv4FAcPdYCOTwcr5BbwZHIdcpmtG6HRM/jIFRakhmNjPD1vTWM9lmYhc4wvPtlaQMf3tOw3FvG+TUR4qOd+/Da+Ja7Fj9Tg800IFqdwWbj6LcEBnQO3xvkP8tf/mKEjcjjkvusJWIYN1+8FYfPQOm3qX00hxZBJmsBs0EO7Sh7jyewbbFuo7G3tnesF38RKM7WwLS1t3LDhRwMLyJD7x6w83B0tIzVku2bli0KxQGApLgxiz74ODeH+AN+YduK89VUce/rtoEAa8e4D9uw72Yvmze3o/jPiY5QK/C6UX8OmYfpj2zR/aTSFdsvfOhJfvYiwZ2xm2lrZwXyD8pK7B9qmG8fjOwZkNfujX0R6WLLatHT0wLiACt00deRsQ62UZoZg++UukFKUiZGI/+G1Nq8VexmrvAxx8fwC85x1AFY//dxEGDXgXB+5XrSk5ZzbAr19H2FvKILN2hMe4AEQwZQ3JYkr9NJ6bwrWlNnkaTsPrQllmJNb4eqKtlYzpbo9OQ+fh24oBj7OrFyauDoH/qK5oxvS3bNMHM5jvE0NnwMupKWQyG7gOW4mo+zp9tLHwxip8tWwYXG3kkKtd4PVmMM7y99N19z0j5ww2+PVDR3tL1p81HD3GISDiNruKoxFqY63jK2t793T0G/ExYiuLAy58Ogb9pn3DbxuX3eg4UJaB0OmT8WVKEVJDJqKf31akaR6nPhz8eOveCk2kFlA6dK4y3gqNW6ZQe0xpkLb9TXj1Ho8NFa9kXsXXU1+A9z9Dme7sWr4udvGagoCPJsK9ZdW6qJNvNUL8R6FrMwVklm3QZwazd2IoZng5oSmrbzauw7AyqrxSCMWW8PxCKEfqVVu57wl+EuQdf4dc5c3ohfe+ocjTkRS6cAC1sJCQtN8a7fGShDXkrbahXm9tpMMxcXTqu5U00kVFHaYfpvvaM4TR3PiMBiqdaeaxQqJ7e8i3hYI6jv+MjsQmUELMAfr3aGeSqkfT9iz+AkGKKG6FJzWxdqc3Nx2l2LPHKXhqd7JUD6Wgq6WsC19qoehI4z87QrEJCRRz4N802llK6tHbieuiqjzB5KNwIL/9+XT79C76dHJXktkPpoVffEU/Jt+kYB8FOfjt1/Uat4I8m1iT+5ub6GjsWToePJW6W6ppaNBVYb2K4miFZxOydn+TNh2NpbPHg2lqd0tSDw2iq6Xcz95W9pMfvZC6q6zpmWmf06FTMRSxdR71s5eR89R9dIf7rUetzApq4vIiLd4eSbGsrwCfViRtOYX26/9GuDHyo2lhdxVZPzONPj90imIittK8fvYkc55K+7hONLdp42AZScxtyGPmlxRxOop2Lh5IzaXO9ObBbMq9sI8COP3ajqRlwfso/n4JJazxJrVNL3pr42GKiTtF360cSS6qDjT9sC5SuJ/oViiakMuLi2l7ZCzzSwD5tJJSyyk6vbXHHfy0/2aBSe+4yqnZC+/RN5GnKTJ0IQ1oYUESKf9ztI0SR9UppBNvtyOZ2/v0S7XfO889MYdcpbb0j2+ZLkJ987YzU/Wkt7ZHU3TYHoq6c4f2+LYgRcfx9NmRWEpIiKED/x5NzlI1jTZJYAH7sj6/HmlDNizG7/FX0P099IaDmoZvuSUoc5Wc0NygzwYqyXnmMWYRnqKf6V1XJfVbk8o27gnooqHbGweTzExFPd/aTtHRYbQn6o62mdoRalMIDd34bCApnWfqNgXiu+TXf7Hc7UR+wccpLvEcHflkNDnK2tCbh/N01xulgbGee4H2BXC6taWRy4JpX3yWQXsZr73Mxl+PJBsb5r9Kh9OeNxxIPXwL3dLo1ZSSX+lfrNZ08gum43GJdO7IJzTaUUZt3jxMeTVkuS9YPwVzU6i2GJNHq0ddqOb3htaFkgRa460mm15v0cbDMRR36jtaOdKFVB2mk861nF3lJFU60VD/cDoVF0UbxzmR1MqOHJ/7J22O+JViwhdQX7WC+qxO0TbJxYJcpqBmzB5fHD1FJ3cupoEtpOT4f/uYPQ3ninHfl9Cv/2LjXSc/Cj4eR4nnjtAnox1J1uZN0oZvg2ujsfG1uMLeXKnQUUQ/v+tKShPnDMbHgVy6sC9AG29tRy6j4H3xdP+x6lMqON4KjVuCCMVUfgwt7dWEbF7aQL+XltKVza+QfdPnaNmv3I/gC9dFbXxJleQ01J/CT8VR1MZx5CS1IjvH5+ifmyPo15hwWtBXTYo+q7XnC87phOYXAvrUt7Y+oUlwLoVPtCel9ydU8TP3mpu0+WUrkmkDupAiZjiRovcqStH7Gfx7oWPJ1moEhQiNazz6A6wm8wztXB9CJ7WzOR1FUXOpo+I5Crho4m/tF0XSnPZy6vHBWRbePHnHKGDCNNpwpoAyz+yk9SEndRNGLUUUNbcjKZ4LIK4Lw5NgLuA0lLHhRVK6zKbj2gTXn5wWUeSc9iTv8QGdreyUjgVMoGkbzgjqVRQ5h9rLe9AHlRczkQNowrQNdKZQv59cCnvDjpR9VlFyhTmYXFtHkFo1iD6/rs1K8pHLyHvdNXZEh7b9OtgwN+wNslP2oVWVnZAmYyuNUKto0OfXSaOdyMlJ8cK/6VL5KXxsqEd/w4p3CV3w70XKHh/SOe4nyAsjaIaTgnqvSqHKFu9R6FhbshoRQlyo6AYDb1p3rUJqrU05v3Boiw0/Cc4Nn0j2Sm/6pDIw6ebml8lKphtoGyWOaqCbBEub9SG/+Qtp4UL2WfAezfbzoc5qC1L3XUFcXRLsu9x2g4PoZvkpmkw6s3M9hZy8U+EzdhHN7aig5wIu6tmsFkywb/bu8eSgHkFbb+t6yNrxGtk1e412sEmSkMx1mgQL6qIb2OWKwRRUYQABGmofdpX+ZEgovvPDfcm2qRcFnHug6680jX7aHET7E024i2yEWC+54E+9lD3oQ23yGLKXCbU3ezeNZzc5I7be1umQtYNes2tGr3EO169dj8LJ17YpeQWcowc6ZSntp80UtD+RVZuasgjVT6HcFKwtAvLUjap+b2hdKIyYQU6K3rSqqtFprK0VjdAaXTcJ5sbHcvULj04nR6kTTT/KjSEMTQZteFFBLacd1G5qY0H+PAUmVdorY8twUlu9Sl9lltTD948o3NeWmnoF0DmdAVn4/kSbg/YTF74Nro0C46vxSbBw3ArlBgtI8u+lpB4fnmOjzOPW557geCsorwDCMcVS9OxH1NvKnobOf48G2llT35VxutprQl3UycffgHIUHqXpjlJymn6UdBGpm9coWk7jDgrXFYH5hZA+j+pZW5/M6xClaUhMzkVrdw+0Nef3mTmgb++O0P6qtCYD8Qm3UJqyCWN6dkO3brpPf/9oFDy6jKTUui+XN3PwxOuTPJATvgoLZ07GmMEe6DIyCKmaMpSVmbaooiw7CRdvWuNZz66Q8ftgOQgfhG7BLE8lHDxfxySPHISvWoiZk8dgsEcXjAxKhaaM9VHfdRtl2Ui6eBPWz3qia2WnGPRBKLbM8hTQS4PspIu4af0sPCsvZiJ/gNAts+Cp/xu8pVeRkJKPtn280K7cJzCDg3c/dNFcwoWLJbpdEjXadWhR8R6NmVqNppJSFBebomApriakIL9tH3hVdsJ08Ea/LhpcunARul7M4dS7H5z1YuP559qjMDkBl6u5XpMRj4RbpUjZNAY9+Tjp1q0//KML8OhyEspDRaJuhw4tKqSGWt0UktLqcVSKtMRk5LZ2h0dlYMKhb2905H/uvDHiqFaKs5D++2Vcvsw+v6fhLtrjtZX7EfPfD/GcwtS+JbBxcoJthaoO8Hx9EjxywrFq4UxMHjMYHl1GIihVw64pq/KnZEOYYl+bV3wxzPIk9v6Qydq8gx/2HIPsZbbPrpHtZaIuEhsnOFUYQIAG2qcqwvFtPnAyJjn+hiUerdCm5xBMWvQ9cj3HYVjXJvzZtdO4sV5JFXuZUnttXoHvMEuc3PsDMpmN7vywB8dkL7N9zOH6KAZi8iRH/LbEA63a9MSQSYvwfa4nxg3riprasjwzWj+FctOE2lIneepGw+Jcg4z4BNwqTcGmMT0rbN6tvz+iCx7hclIq/3qQBFbtXdGaV0+iagKlRUs4tZXqdpipoFJKoCmt/HO5uYs3BnTQs1dvT3QoTkHiZd2fwOvmezMMnDwJjr8tgUerNug5ZBIWfZ8Lz3HDwIVvQ3Pd+Pgq8IPxJs4Z6pIbj1WfZ2+aNN7WNZcrMS2mFL0WYPNiN5xe+ynOdf0XNr3/jO6n+U2ttVbt4VoZkGiitEBLp7bQRaQZVColJBoWa6bO6WqdX5QK6mNWz9rKD+1/NqXQsDw1s9DvXgKFQs7+y1GEImYTq16+mO/XmU2J9DBrik7t6y52WUYYpnpNwu5HXeDt3Qvdvadg7Kun8cHCS/wZJlDC5GYmM5fqpKxKGTLCpsJr0m486uIN717d4T1lLF49/QHq0kVNSsDVNAtzKW+bqgjpVaK7GAZFrkIxK57sVGlV20rMLZjGLOk1fNhLzGFexSGc50ynWNdJ1cBjbXKhwE3ay5NLKpNWJAKHhQW3RTUnJUVFTHIr9PKdD7/OVQUza9oJ5aEiYUJXPWpY6lJdYFaRT6JQQM6f3ihxVAuSliMQsPvf6Ft5v1IF0/qWMP9YVGpXloGwqV6YtPsRunh7o1d3b0wZ+ypOf7AQJklsin1lQzBhpC3G7N2Pmy+bY8/Jphj+7UuwZofqY6+qPuYmQPweE3XhfG1halA21D7VEIxvm2H4z+k4vLxrB8IP/YTjWxZgx/q1GLUpisnRrlqMVqORY72cqvYypfbKMGTCSNiO2Yv9N1+G+Z6TaDr8W7zEObwKNhj6n9OIe3kXdoQfwk/Ht2DBjvVYO2oTolitdOTP0iFcP4VyU7i2GJdHb+5cZxpaF4p0RofvfD9Uda0ZmnZqz+skgVTKT3grkHAq1opEoYRSv5Cy2mDOLMHmMVrq6nsbh//gdNzL2LUjHId+Oo4tC3Zg/dpR2BQVhimK7xpWG42OrzzVBgBuMqrbZULcJur0rWqu2vtqcK03qo9p421dc1kf02JKg0ePCtl/CZqH9/GQXaKdsZtaa1k81ohIgwFp4pyOXctUrkK5xoL62DjUq7bqp8efh4UTOrrIcetiErIrXlouwqXL19n0mGHeEi6OKuQXWKOP7yRMmqT7TBjqjvZuPdDB1Kc8FZThRthG7L43COtjz+K/u77E2qWzMbx5CR6y/ssLghBmds5wtMpG6qXyhQCM0mRsmTEByw78hrCNu3Fv0HrEnv0vdn25FktnD0fzkodcSFeeX1fM7ODsaIXs1Et6L3iXInnLDExYdkBALzPYOTvCKjsVl/TeDi9N3oIZE5bh4C09qZhPXBwtcCMxEfy6Ci0FFxLwO9rA2aV6qNcHCzi5OMLiRiISq3aChN+BNs4ufEJpcPPy78jT/psjFwkJabBwcdUO9BK9OmDe0gWOqnwUWPeBLx8nkyZNwFD39nDr0aHyiahJMPk6ukB+6yKSKgMTRZcu47o2MBsnjupH/fouuxGGjbvvYdD6WJz97y58uXYpZg9vjhITBTbNvgp4TRiDVjH7sG1rGH5uNgoTBlqy/XWVmSuAhOKiR5VjXfFt3L6nO7GhuhiicdsUim8nPIzdhfV7b+PZacsRvO80Um9ewLr+eTgcekhwAUejxLp+8hjCxNqr8JqAMa1isG/bVoT93AyjJgwE53F9yrJisWv9Xtx+dhqWB+/D6dSbuLCuP/IOh+IQp6y+LGU3BOqnUG4K1xZzIXnqTUPrgjlaMtlV+QWw7uNbYfNJE4bCvb0benSwrfdArUlPQUplIUUeq+9XzdvBrfxPW/oI+V59H7G71mPv7WcxbXkw9p1Oxc0L69A/7zBCD2U0uDYaHV8P3mK1gU3fi4vwqLI44Pbte7pzG2XOwG4o+H813KcC+hxRPObx1rSYyvtlBaavTUO/RYvgfWM9ZiyPYqMt06+xa22D/SOkjxr361lb65tbDcQGr7C7fJvjq/HO1vPI0RTi+g8fwn/PLT5YrOEzcTTsz36KWYHHcLOIJfPdGKyb8hIGjApAdL72pDrB3XFJiu8iLe0B60ODrN++wpzlP+ABd4dSvrhQCNVAjB/VAjGfL8a2pFwWC7lI2uaPlV//hlxrO0jZLXXx3TSkPWBaaLLw21dzsPyHB9wtTMXq7bqjwsDxo9Ai5nMs3paEXBaAuUnb4L/ya/yWay2ol2rgeIxqEYPPF29DUi4bTHKTsM1/Jb7+LRfWNvrut8PwicOgigjE7OBYZLOBpeDKd1i4LAz5vcfjNbfa7qPqht3wiRimikDg7GDE6jrBdwuXISy/N8a/5sbfrREeHFqFf+1LQ2FZHi6GvovlB6V4ZdIINDOTQCaXgfIe4AE3+Fn7YOJoe5z9dBYCj91kWmtwN2Ydprw0AKMColHXULF5hd3t2xzH6ne24nyOBoXXf8CH/ntQfr9gShyVXvoRwZv34qzeYN0Y1CuGuSdjkmLcTUuDLix/w1dzlkMXliZEpYn2lXlOwDiXU1i79he0HeuLPvxfL+sks5kaTk42uHdiDw6ksaQvSseRFevwYw4/6jVUF0M0cpvG47szLK7sw8rZc7DicDqzAIuVhzfxR1YxbB0dYS1UjRsh1iUyOWSUhwfa5DGEibVX5okJ41xwau1a/NJ2LHzLHa6HmeQK9q2cjTkrDiNdpyxu/pGFYltHODJlq8piIVg/hXJTqLZIBeRB4UUcDA7G9/F1/zrCho4v1j4TMdr+LD6dFYhjOqMjZt0UvDRgFALqM+Dx0P2DCFwYhssFGuRf2o33l++HxGcSRjU3FGwCvn8kwZV9KzF7zgoc1hkQD2/+gaxiWzg6Co9FggiMr2onJ9jcO4E9B9K4FpF+ZAXW/ZjD3zA3wpxBIoNcRsh78ED7MO7x6tPusY+3gjGVexLLpq/HzYEr8cWKFfhi5UDc2jADy06w+G/0Wttw/xjX5xEk9a2t/LvBfz6aexS5fAi1UZiRVCYlqV1v8hvdjVT8Sk/ueFTgcGpnaUZmMgXJLSSkaDOYlkZkVr6oLUCVhXFZEbT4eVuyMJORZRMFyWx70oTAReSjVtPIkDq0mR1Nq4Y5k9JcRiqllMxY+8M+/kW7ajorYjE9b2vB5LWkJgoZ2facQIGLfEitHkkhmZp6LoxjaLIpetUwclaak0ylJKmZkpyHfUy/3GeHBPXSUHb0KhrmrCRzmYqUUjNSOg+jj7mLa/RzmyKWvUSOSgmZK1TM5gpq7T2Xwq9xywQYnMzKljTtEL8Qg1ESv5Tcle60NJ4/RxAN3Y5YRi85KkliriCV3IIUrb1pbvg17WIE3eIuFXUc4UcDW8pJoWA2lrYg738doVu8kx6dmEuucnOSN+1O70cVsVCJosDh7cjSzIxkCjlZSBTUZvBSimA25+Be4Fe2nEaVYpdQ/FJ3Urov1W5xxyu+HYLJdy9yOQ1po2D9ykgqtaPefqOpm4pfGGdCHOV+PYLk0l7kf8FUm9T+7RD6CPattZ2S2rx1RLe4gUOTRRGLnydbC2YbyyakkNlSzwmBtMhHTeqRIcSbyChC9tVRShcDn9fqvex8pd5CMpfo5wSjKHETjWmnJDMWeyoWg87Dl9DMFyz5hXFCuugWeinbvEVHKgwgQIPtU+1bAoTiuySVdkzrQWpzc1I0tWL5KCV7z9m0N01vsYcRGhrrLHlorquczOVNqfv7kYbtZWLtLb0YSM/LpdRr2Xmdblr0a0oJpe6YRj3U5qyeNCUrVi+l9p40e2+abmFfNVmE6idnW2O5KWh7IXnubKKhTJ8+q3/Xnm2cagvjGjy+MN2iAml4O0syY20omOwSRRsavDSCj0HOrkpqOe0Qv+iI5cov75Obsg+t/r08dh7Q1uHKinqurWs2z9Mr3i1JxtnLTE6tByyiQxk6W9bH9yWpO2haDzWZM/s2tWJjkdSePGfvJS58G24D1kat4yujKJE2jWlHSjPmVxXzr/NwWjLzBbI0cc4gmBvMsifmupLcXE5Nu79Pkbcesz4C462wvEIYi6n7dPTtTqRoPoK2XOXjp/QKbX6lGck7vU0RWcJ1sYZ8Rb/Q+25Kbf5UROTW4aQsH1uF6org/EIgR+pZWyXcf/j58BOhMDMZ51PzYd/1WbRT15yua3LScCExHXny1ujaoz1sa3lf0iTYndj18+dxvVCNDj27oZWK319nSpF9JR5JGRo4dHKHm32lUGW513H+/HUUqjugZ7dWqHcXBijNvoL4pAxoHDrB3c2+8mV7U/QqzcaV+CRkaBzQyd0NeiLXoDQ7FfEXM4EWndCjg11lP40Jkyc1/iIy0QKdenSAnYFOyvKuIy7+JqTtnkGPKkqVITctDuf/KEPrHr3gor3N0yAn7QIS0/Mgb90VPdrbNkzuwkwkn09Fvn1XPNtOXfVPJo0WR/WgXn0ze10/j/PXC6Hu0BPd6iVwA+xbV5mL7+JS3CXcb9oR7l2a6xZqVNAYulTnMbRpNL7LkHczCQlXHsDM3hU9OzeHgj9iGg2L9bLcNMSd/wNlrXvgOZcaL/JW0Fi1tyzvJpISruCBmT1ce3ZGcz1lq8tiUv00lpscArWldnnKcGfzGPwTm7H//zXn99WBxqgLmhykXUhEep4crbv2QPsGDHhZX76MtstaY2/qf9Dt0gXckrdDzy4tTIo1o74vy8PNpARceWAGe9ee6FzVoY1QG2sfX7lXIO5eisOl+03R0b0LmhtYL9eguGXyp8Wdxx9lrdGjlwus8bj14cL1MY+39Y6px1FrG6GuGNWn7rX1iU+CRUREREREnjiFp+HvG4JO6zdhfFtjfz/9e1AxCb66Ba+YMvMVEXkK+ftnuoiIiIiISENRPI+le4P/JybAHBKJGczNJFXWH4qIiFRFfBIsIiIiIiIiIiLy1CE+CRYREREREREREXnqECfBIiIiIiIiIiIiTx3iJFhEREREREREROSpQ5wEi4iIiIiIiIiIPHX8fSfBRelISM4C/2NBlWiuYd/K97Dg80jcrXGwDrB29gfOx/oTWfwOESE01/YjcP56nMhqiOEbRsNlyEF00Hx8tPcyvy3ydPB38HsR0hOSoQvtApzePB9LdiZpj9REg2v7AzF//Ql+u+7UK5f+hLqZ98sXmL9sF7/V2AjZVY+C09g8fwl2JtX263t/MjnRCJr/EfZe1vA76kId9BairnI0esxUi/1qftKkH8LyiUPh/cIgTN1yDtGPTW/9fK0HdbRLTnQQ5n+0l9+qO1Xtkqz91bz6UnB6szZHkx9jajTWfOPvOQlmwfHFKA9M3pleYxJcEP0pFqyJhLl7L9g3RDtNBqK2BSHs7AN+h4gQmowobAsKw9kHT+4LRxosQ1ke4sODEHLiBr9D5KngL+93NrB/MQoek3ciXVv0ipH+64/46Xym9mhNNMiI2oagsLP8dt2pVy79CXWz6PoZ/Hj0Ar/V2AjZVY/idPz64084n1mfSWfjU5YXj/CgEJy4UZ+ZRx30FqDOcjR6zFSL/Sp+KsDBJVOx8mcL9B09CkO62+LGY9G7er7WgzrZpQx58eEICqnvTW91u7Ro0OTwUeI+BH0ZgWuPcxLcSPONv+ckmPJw525ezafALPD+uGuHCZtDsfyFpvw+ERERkb87hLw7d5FXUfTUeP2rRJz5eBC//fRg5/s1Ek8F8luNTR3sqn4dXyWewceDDPxs2d+O/+F40vdTWS4yMnLR8uV5WP7eHLzxvDPeeCx6V8/Xvzg17GLz1Lwr+wT1LENm5Br4eraFlcwCCvtOGDrvWyQX8odzzmCDXz90tLeETGYNR49xCIi4jbKyDIROn4wvU4qQGjIR/fy2Ik1ThjsnP4Ff/y7wmhKAjya6o6XrIMwKTUaRrjF8/7YXJq7dgdXjnkELlRRyWzf4LDqA9PKb+IJEbJ/zIlxtFZBZt8fgxUdxR/8Go+wOTn7ih/5uDrCUmsNCYQfXQbMQmqzrIXvvTHj5LsaSsZ1ha2kL9wWG78hyvn8bXm+swlfLhsHVRg652gVebwbjbI7uuOF2jNtKqE3uep193OBgKYW5hQJ2+vbJ3ouZXr5YvGQsOttawtZ9AU4UCFzDKEjcjjkvusJWIYN1+8FYfPQOS309iq/hwNLRcG/VBFILJRw6+2DezovsnlNHzpkN8OvXEfaWMmZzR3iMC0DE7bpVDSEZyjIjscbXE22tZMxn9ug0dB6+rQgyExDQodY45Q8boiDxG8we1BE2CjnUHV7Cou2f4S2vafjmjzIWZrsxvd8IfBxbzJ8NlF74FGP66Y5rKctE5BpfeLa1goz5xb7TUMz7NhnGtDJua4FcrIXS9MNY8bonnNRySJX26PrqhzhYnlBG7WZCPqIY1w4sxWj3VmgitYDSoTN85u3ExQrDlyL98Aq87ukEtVwKpX1XvPrhwYrrG+x3gXw3jDGZhPLJmE3KkBE6HZO/TEFRaggm9vPD1rRsdn5fDPGP0l7NPclJ3D4HL7raQsHisP3gxThatYA1PJ8NIVg36x6rnKzG4pGrkX19Vug2GEZ9bbC2GYtdzg/6djXi05zv8XbfIfCP0uVq8bUDWDraHa2aSGGhdEBnn3nYWRmwjVDv6penOoRyTk/vBwfx/gBvzDtwX3uljjz8d9EgDHj3gHarQfklFDN11lMg9sv9dPws1r32Ctaw2pr5/Wz07fM2vs+p5u/SdBxe8To8ndSQS5Ww7/oqPjyYDg2XP7uno9+Ij1FZmktx4dMx6DftG367HEP5ylq4cxKf+PWHm4MlpOZMLztXDJoVioqSImiXuiCc7xWUnjdgF7ZfKHdrtRUP3UfMx6+hZ3MlZHJbuA15H98xO2ipR30VrE/1qjUM7scyngQlCWvIW21Dvd7aSIdj4ujUdytppIuKOkw/TPephH79V3ey7ORHwcfjKPHcEfpktCPJ2rxJh/Ny6cK+ABrtLKW2I5dR8L54un9vD/m2UFDH8Z/RkdgESog5QP8e7UxS9WjansX1do+CfRSkaOJCLy7eTpGxMXQgwIdaSVvSlP257HgeHX/HleTNXqD3vomk05GhtHBAC7KQSKnfmlSuAbq3x5daKDrS+M+OUGxCAsUc+LdWBvXo7ZRFGrq9cTDJzFTU863tFB0dRnui7mivq869YB+SyxTU7Jlp9MXRU3Ry52Ia2EJKjv+3r9Z2jNtKqE3uBOP20dzeSINlZqTq+RZtj46msD1RdOeOgE3zjtM7rnJq9sJ79E3kaYoMXUgDWliQRNqP1qSWshPyKXphd1JZP0PTPj9Ep2IiaOu8fmQvc6ap++6QpuRX+ld3S+rkF0zH4xLp3JFPaLSjjNq8eZh5w0SEZChJoDXearLp9RZtPBxDcae+o5UjXUjVYTod5gxnCM0N+mygkpxnHmMbAjoYjVNdczXIO0Fz3eRk23sOhZw4TSe+nkf9WluSQqaTWXPjMxqodKaZxwr5C4iKfn6XXJXldi2hhDXepLbpRW9tPEwxcafou5UjyUXVgabXppSArYXiyyBFcbTCswlZu79Jm47G0tnjwTSV9aEeGkRXS4XsJpSPzPLRC6m7ypqemfY5HToVQxFbmZ3sZeQ8dR/d0XDdryDPJtbk/uYmOhp7lo4HT6XulmoaGnS1EfwulO+GMSpTA2tU7oV9FMCd33YkLQveR/H3dec7+O3X9p13/B1ylTejF977hiJPR1LowgHUwkJC0n5rtMcF+xfMZ0MI1c16xCrDeDzqaqSi5bTyk4362mBte2Qsdqva1bhPg8lH4UB++x9xAUsLu6vImtXgzw+dopiIrTSvnz3JnKfSPi5gG6HeCeWpodpRiVDO6emtuU1fj7QhGxbr93QXE93fQ284qGn4llvCNjcqh/BYW9d6JBz7vJ++T6PTuz6lyV1lZD94IX3x1Y+UXKjv7yKKW+FJTazd6c1NRyn27HEKnsrqu3ooBV0tphufDSSl80yqVKuIfn7XlZR8P/p6G8rXPb4tSNFxPH12JJYSEpj9/z2anKVqGq1LQEG7GEdTIZ8WwXqjB/N3TbsI5a4xW5Xq5iQSc2o+YAGFnoyjsz+upZFtpdR88j5tl3Wur4L1qX61huMJTYILKWKGEyl6r6IUvfp6L3Qs2VqNoJA7jyjc15aaegXQuQesgDBK036izUH7KZHL15IL5N9LST0+PMdUZz7MPEM714fQSa7Y8BRFzaWOiuco4CLXARfocpJ5r6Nr5acURdKc9gp6LuAiUW44TbRXkvcnqVQujubmZnrZSsYHoIYyz+yk9SEntQOwjiKKmtuRFM8F0MVSXWGWKwZT0M1KGQyhDQ758xSYVNETZWwZTmqrV+mrzBID7QjZSqhNjaB9tAOFXEGDg26yK3UIXZMbPpHsld70ScUAqaGbm18mK34yR7lh9IadkvqsSq6wKWkyaOsINakGfU7X88PJ17YpeQWcI52LSyntp80UtD+RdNMgYYRkKIyYQU6K3rSqquForK0VjeAMZwj9yZCQDhqBODVA3neTyF7RR08mDV3/Yig1NXUSXBhBM5wU1HtVSqVMLL5Dx9qS1YgQMqjVI2O2Fo4vQxRFzqH28h70wdkifg/T7VgATZi2gc7cE7KbQD4yqcLesCNln1WUXNkAZWwdQWrVIPr8+iOKnNOe5D0+oMru8+hYwASatuFMw/3O+jKe7/yuKhQZlanBNYpVugv+vUjZ40M6xxU9/UkLs1f4RHtSen9Clalwkza/bEWy8gG6oflsCKG6WZ9YFYzHqpNgIV8bqm1GY7fapMiYT/Unwblhb5CdkuV1ZcCykN9KI9QqGvT5ddIYzUFTEM5T4UmwsfjS15soe/d4clCPoK23dSdn7XiN7Jq9RjvYrFjQ5sbkEBxr61qPhGNf309cHdrwopJcZh9nPWkPVuqttYecenxwlnmeJ+8YBUyYRhvOFNRpElwjXzWZdGbnego5yT0E4CmKorkddfYvFbSLEFUnwcL1phrV7SKUu0ZtVaibk8heoH9XOKWITr3vRgqPFezfda+vgvWpXrVGx5N5HUKTgfiEWyhN2YQxPbuhWzfdp79/NAoeXUZSqhkGTp4Ex9+WwKNVG/QcMgmLvs+F57hh6NqEb0MPMwdPvD7JAznhq7Bw5mSMGeyBLiODkKopQ1lZ+QNzCdTtOqBFucZmaqibSlBaXIzStEQk57aGu0dbmJcfduiL3h0tyrfg4Pk6JnnkIHzVQsycPAaDPbpgZFAqNGWsD74LiY0TnGyFTWru4o0BHSp6gkNvT3QoTkHiZd1b5FXaEbSV7m8zxto0yT4SGzg52Va8H2P8mhKkJSYjt7U7PNrq9dm3N8pNVno1ASn5bdHHq12FTVmj8O7XBZpLF3DRfCAmT3LEb0s80KpNTwyZtAjf53pi3LCuMOBiA5QKyKBBRnwCbpWmYNOYnhV269bfH9EFj3A5KRWVLxwYRlCHEkWd4pST6XpSCh62eBbPO1fK3Nr7BXQqDzUBNBnxSLhVipRNY9CzXKdu/eEfXYBHl5PAh0NVFEZsbWJ8VaUM2UkXcdP6WXh2lfH7AMtBHyB0yyw8e1PIbtyO2vORGR4JKflo28cL7SobgIN3P3TRXMKFxEwkXbwJ62c9Udm9JQZ9EIots3o12O/avkzI9yqUZRuRydO0HDRmE2OUpiExORet3T1QmQoO6Nu7IyoqWAPz2RBCdbNesVqneDQxx6vUNuOx66n/eq+ATyspxdWEFOS37QOvyoBltvBGvy4aXLpwESXGcpA/3yj1ytPqmB5fNq/4YpjlSez9IZPFxx38sOcYZC+zfXYNq6uCY21d9TQh9k2lLDsJF29a41nPrqh09yB8ELoFs6oERj1gMnm+PgkeOeFYtXAmJo8ZDI8uIxGUqmH2LUOJ4BykbphWb2pHKHcv3xa2lUTdHq6tK7SBlVUTSIq4lxPqWl+FxnpheY2lR/0s3GCKUMSEsurli/l+nSsHSg6zpujU3gI2Dv/B6biXsWtHOA79dBxbFuzA+rWjsCkqDFMd+XN5yjLYPq9J2P2oC7y9e6G79xSMffU0Plh4iT+DQwJz8yo9cbt0lGpYOTWDhb41JAoo5OUnlCEjbCq8Ju3Goy7e8O7VHd5TxuLV0x9AvwsJa9+i/BIjSBRKKMsLEYe5BbMBseDUbVZtR9hWSDTepkn2kZizSyqFF7qmVKNh/VtUCSCJQoEKkxVrWOhaQFolwpgPOCMzoTRkg2H/OY24l3dhR/gh/HR8CxbsWI+1ozYhitlabyypFSEZinSGg+98P3Suajg07dReOPgFdWCDxVAjcWpQCYKEXW+uFycSlQpKvW3unCqwvqh8V1ERG2Ss0Mt3PvyqKsXCoRO4cKiJDYbWZutdfYXjywAlLGdgYQ5pFbl5TLCbdru2fGQaatj9oEXVBliIcr5mRVLDbly13UsrL9GjwX43Md+rUmJUpgbXKKOUQpcK+ppJoFDIKy5vcD4bQqhu1itWTah38fw2Q9jX7ORqtc1o7FbBuE/1KdYFbNXYYv3qQl7DMtpIDppU70ywi/bm0hh1iK8mQzBhpC3G7N2Pmy+bY8/Jphj+7UuwZoduCdrcyDeSCMWMKXpWQTj2TaaEtcWkNzcWGDVKM1XfZZiyDIRN9cKk3Y/Qxdsbvbp7Y8rYV3H6g4XQZqCgXeqGafXGCEK5S6cFbaWr14aoe30VrE/1qjU69KdNfx7mLeHiqEJ+gTX6+E7CpEm6z4Sh7mjv1gMd1PcRu2s99t5+FtOWB2Pf6VTcvLAO/fMOI/TQbdaARC/Ay3AjbCN23xuE9bFn8d9dX2Lt0tkY3rwED7kJoAnrDiycOsJFfgsXk7JZazxFl3D5Ov/9HmU3ELZxN+4NWo/Ys//Fri/XYuns4Whe8pAbkiuvMRFNegpS8vgNRl5iIq6at4Obobs+IVvxT4xrb9OsHvYRsqkFnDq6QH7rIpKyKxsounQZ5SazcHKBo8UNJCbe17NPAS4k/A60cYbTw1jsWr8Xt5+dhuXB+3A69SYurOuPvMOhOGTSYhEhGczR0sURqvwCWPfxrbDbpAlD4d7eDT06VD71rg0hHVzMswTitDrmaOvWASpO5nuVLRamXMJVluNa2CBlTsUoelRZWotv30b56eYtmUyqfBRY94FvuU6TJmCoe3u49egAQ3+IKMsyYuu7zU2Kr6qYwc7ZEVbZqbik56vS5C2YMWEZjiicjNtNyu+qDQsnJpMFbrAYvl/ZAAouJOB3tIFz+xZwdrRCduolVHZfiuQtMzBh2Y8N9nu98t3MzohMBxpcozgktY03zF4dXeS4dTEJlalQhEuXrzMJOBqez4YQqpv1iVVT652O+uS48dg9eKtyn3GfHuS3OZj9mBwWNxKRWDVgoQt5F5gby0E9OWqlTnZpDBTwmjAGrWL2YdvWMPzcbBQmDLRk+xtWVwXH2rrqKRj7pmNm5wxHq2ykXtJb2FyajC0zJmDZwVvaGwgqLkJlaS7G7dv3DNcDhn6+lt0Iw8bd9zBofSzO/ncXvly7FLOHN0cJXwAE7VInGj4nEsrdZvbGbWWUOtdX4fpUr1rD09iZYyLW8Jk4GvZnP8WswGO4WcQmcXdjsG7KSxgwKgDRjyS4sm8lZs9ZgcPp3GrBUjy8+Qeyim3h6MjuRSUyyGWEvAcPtIHOPTGSFN9FWtoDZkANsn77CnOW/4AH3F2l4NJAhs0r7K7MBsdXv4Ot53OgKbyOHz70x56Kgsg91ZKg+G4a0h6wfZos/PbVHCz/4QHzRJHw6sNq0P2DCFwYhssFGuRf2o33l++HxGcSRjU35A4BW+XrzjLWZn3sI3SNzSvsztLmOFa/sxXnczQovP4DPvTfgwqT2Q3HxGEqRATORnBsNvNTAa58txDLwvLRe/xr6GxxBftWzsacFYehc/FD3PwjC8W2jnC0ZnYovIiDwcH4Pr7iKy5qICSDtc9EjLY/i09nBeKYznCIWTcFLw0YhYBywxlDQAc3dhdsNE4N0NTHD+McovHvd75E3AMNitIPw99/NzL4SbCZ2glONvdwYs8BpLEmi9KPYMW6H5FTXnitfTBxtD3OfjoLgcduMm9ocDdmHaa8NACjAqJhSCsziTFb25gUX9VRDRyPUS1i8PnibUjKZYUrNwnb/Ffi699yYd1uhHG7VXsYVRM7DJ84DKqIQMwOjkU2S/KCK99h4bIw5Pcej9fcmmLg+FFoEfM5Fm9LQi6r6rlJ2+C/8mv8lmvdcL/XK99VRmVqcI1it/0yuQyU9wAPaoyLNnhlyljYHF+Nd7aeR46mENd/+BD+e25VDCgNzmdDCNXNesSqqfWunPr42mjs2ujXYOM+1cdu+EQMU0UgcHYwYnUBi+8WLkNYfm+Mf80NUqM5aEq9q5tdGgOZ5wSMczmFtWt/QduxvujDvxHQoPwSHGvrqqdw7JuMaiDGj2qBmM8XY1tSLpss5iJpmz9Wfv0bcq3toHZygs29E9hzII3LGqQfWYF1P+bU8iS4Wr5yfyWQFONuWhp0JeU3fDVnOXQlRZuAAnZhmDAmltPgeiOUu0ZtZcM3Uht1r6+C9aletYaHfzf4z0dzj6ICh1M7SzMykylIbiEhRZvBtDQiU/vieEnqDprWQ03m5gpqaqUkqdSePGfvpTTtW8+P6MRcV5Kby6lp9/cp8lYELX7elizMZGTZREEy2540IXAR+ajVNDKEa497+V1JLacdYlfylMTTUncluS+N125q7kXS8iFtSGEmJZlUSna9/Wh0N1XFwrisiMX0vK0Fk9WSmihkZNtzAgUu8iG1eiSF8AvalG3eoiMG1gLow70wrrB5nl7xbsn6kZHUTE6tByyiQxmc1rpFHzXaEbCV8TbZ5VnG7VPCLR5RtqG39DoVukbDWTVyOQ1poyAzrk+pHfX2G03dVJULaTS3I2jZS46klJiTQiUnC0Vr8p4bTte0C3tKKHXHNOqhNidzRVOyUkpJau9Js/em6V5sv7OJhsql1Gf179xWLQjJwI5HBdLwdpZkxvRQyC1IomhDg5dGUGbFC/nVqPYtAcZ1EIpTw9w/tYaGO+tkljGZnxvuRa0V5TIXUeKmMdROacb6UrE+nWn4kpn0gqWeXe9FUeDwdmRpZkYyBZNJoqA2g5dSRK1KCdhaIL4Mo6Hs6FU0zFlJ5jIVKaVmpHQeRh//oluJa9xuwvnIGqCIZS+Ro1LCZFYxmRTU2nsuhZcbXpNN0auGkbPSnGQqZncz5rNhH5Ou+4b6XSjfa2nEiEzC+SRsk0cn5pKr3JzkTbvT+1EZVRYycT6MXD6E2ijMSCpj/rXrTX6ju5GqfNFOI+SzIYzXTe54XWOVYTQeq307BCe3EV9rF8ZVq23cNbXHLucHfbsaiTP9BVecXBHL6CVHJUlYLVAxORStvWlu+DXt4u1GqXcCeSq8MM5YfFXTW0spXQx8nuTSXrTsPJ93WgRsblQOTg3jMSOkZw0EYt/khXEMTXY0rRrmTEpzGamYj8yYHsM+/kX3rRRFibRpTDtSmjHfqpiPnYfTkpkvkKXBhXHV8jXyFkUsfp5sLVgeWDYhhcyWek4IpEU+alKPDNHZTcguRmOk2sI4wXyvRg27cPIYz11jtuLmJEqWo4cqg40SP+pFyu4fsH/Xp74K16d61RqGhPsPPx9+Imhy0nAhMR158tbo2qM9bCvXKoD7FaebSQm48sAM9q490bm5gj/AYHceaXHn8UdZa/To5cLuH3Nx/fx5XC9Uo0PPbmil4s+rE4XITD6P1Hx7dH22HdTVHsyW5V7H+fPXUajugJ7dWqE+XWR9+TLaLmuNvan/QbdLF3BL3g49u7SAnma1UputTGqT2avO9jHlmsJMJJ9PRb59VzzbTm3gTwulyE6Nx8VMoEWnHuhgp+9gzsU3kZRwBQ/M7OHaszMqXVyGO5vH4J/YjP3/rzm/rxaEZNDkIO1CItLz5GjdtQfaVwkyUzCug9E4rY3iO0iJ+x15Dt3QLeMj9BxyBm8mnMT89rrHpMV3LyHu0n007eiOLs0NLcrQICftAhLT8yBv3RU92ttWLlCohdptrcNoLtZGaTauxCchQ+OATu5usK9yjYDdTKA0OxXxugbQo4NdDR1Ls68gPikDGodOcHezr3q8gX6vb77XKlN9crAKZchNi8P5P8rQukcvuHBPEKtRmJmM86n5sO/6LNrVLGCNkM+GMF436xOrHIbjsQy3gl5Cu1UueHTjS+15Wurja6OxWxWjcaYPazM1/iIy0QKdenRAzVLR8HpXrzx9HDQov4Ripu56Go39OsHq1pV4JGVo4NDJHW5VAqMYdy/F4dL9pujo3gUGS3MF1fMVyL1+HuevF0LdoSe6GU5AI3apw5jI0eB6wyGUu8ZsZZx61VfB+lT3WvPEJ8FPGxUT1qtb8IoJcyVTeBxtPnEKT8PfNwSd1m/C+LYNKWh/fYp/eQ/dq02CRUREDFGEmIXPYsAPw1F48WN+3/8AT1G9E6knYow8FkRL/slIJGYwN5PUvsilHjyONp84iuexdG/w05HsnP/Mzf63/Cci0tgUReIdNxt4f3IDPf4xht/5P8LTVO9E6ocYI48F8UmwiIiIiMjfgALcTrmEm5LW6ObmgAZ+c6uIiIiIOAkWERERERERERF5+hCfq4uIiIiIiIiIiDx1iJNgERERERERERGRpw5xEiwiIiIiIiIiIvLUIU6CRUREREREREREnjrESbCWApzePB9Ldibx25Vorh/AqvfmY/3xO6jzzzA+JnKigzD/o738Vk2K0hOQnNVY0hYhPSEZjdYcNLi2PxDz15/gtwXIiUbQ/I+w9zL/u8IiIiIiIiIiIo2AOAnWUoz0X3/ET+cz+e1yCnFq/QIERhB6POvwFzFWGfLiwxEUYngSqbn2BUZ5TMbO9MaYtbIJ6xej4DF5JxqlOS0aZERtQ1DYWX7bOGV58QgPCsGJG9wPsIuIiIiIiIiINA7iJFiLGq9/lYgzHw/it3k0N3DH5nVsCg3AQDW/7y8O5d3B3bzGmrES8u7cRaM1JyIiIiIiIiLyF+EJToJLkX54BV73dIJaLoXSvite/fAg0rm/emfvxUwvXyxeMhadbS1h674AJwrKkBm5Br6ebWEls4DCvhOGzvsWyYW61rS/q33yE/j1d4ODpRTmFgrYuQ7CrNBkFPFnlKYfxorXPeGklkOqtEfXVz/EQW2HOfj+7b4Y4h+lOxHFuHZgKUZ7eMPvo5V480V3+MzbiYsFuqM5378Nr4lrsWP1ODzTQgWp3BZuPotwQNtWdfJx/MPB6Dt1W5WnqcVnVmG41wzszjQwwyzLROQaX3i2tYKM6WHfaSjmfZuMClVroSwjFNMnf4mUolSETOwHv61puv2ZkVjj64m2VjJYKOzRaeg8fKs1nAZp29+EV+/x2JDEP2nVXMXXU1+A9z+/wZlvpmPylykoSg3BxH5+2JrG9Cu+hgNLR8O9VRNILZRw6OyDeTsvgjeNAQqQuH0OXnS1hUJmjfaDF+PoHf2vphbyqwBGbKVJ2443vXpj/IYkFm0cGlz9eipe8P4nQjldyu7g5Cd+6O/mAEupObONHVwHzUJoMh8xOd/jba+JWB3ij1FdmzH5LdGmzwxmu0SEzvCCU1MZZDauGLYyCvd5N9Zuaw4uzrwwce0OrB73DFqopJDbusFn0QFd3IuIiIiIiIj8eXA/lvEkKIpbQZ5NrMn9zU10NPYsHQ+eSt0t1TQ06Cppbm+kwTIzUvV8i7ZHR1PYnijKOL+GvNU21OutjXQ4Jo5OfbeSRrqoqMP0w3Sfa/DeHvJtoaCO4z+jI7EJlBBzgP492pmk6tG0PUvbIa3wbELW7m/SpqOxdPZ4ME3tbknqoUF0tfQeBfsoyMFvP9cS5UcvpO4qa3pm2ud06FQMRWydR/3sZeQ8dR/d0bCugn1IoWhCLi8upu2RsRRzIIB8Wkmp5RTd9dXJ3v06NVP2pY9TSvk9hXTi7fbUZOB/WN/8rgpKKGGNN6ltetFbGw9TTNwp+m7lSHJRdaDphzlNNXTjs4GkdJ6pO12f3Au0L2A0OUvb0shlwbQvnp1fkkBrvNVk0+st2ng4huJOfUcrR7qQqsN00jaXH0NLezUhm5c20O+lpXRl8ytk3/Q5WvbrI9bcPgrgbNh2JC0L3kfx9/MpemF3Ulk/Q9M+P0SnYiJo67x+ZC9zpqn77jDJapJ3/B1ylTejF977hiJPR1LowgHUwkJC0n5rtMdLEoz7VXPjMxqodKaZxwq151dFyFb5FLO0FzWxeYk2/F5KpVc20yv2Tem5Zb/SI3b03h5faqHoSOM/O0KxCQnMj/+m0c5SUo/eTlzIMEeTj1xKSqeh5B9+iuKiNtI4JylZ2TnSc//cTBG/xlD4gr6kVvSh1ZxvhWxNujhTNHGhFxdvp8jYGDoQ4EOtpC1pyv5c7gQRERERERGRP4knNAkuosg57Une4wM6W8Tvojw6FjCBpm04o5sEyxU0OOgmP7EqpIgZTqTovYoq5pGMe6FjydZqBIXcYZOlzDO0c30IneRmqTxFUXOpo+I5CrhYSkWRc6i9vAd9UNkh5R0LoAnTNtCZQv1JcC6FvWFHyj6rKLmiLw1lbB1BatUg+vy6RjsJlsu8ad218r50+iieC+C3q/FwH/m1lFMv/wts2sbI/4mmO1mTz6YbNSeOhRE0w0lBvVelUKWq9yh0rC1ZjQghbqpZ6ySYUXLBn3ope9CH57Q9seZmkJOiN62qajgaa2tFIzjDMR6d/Yh6W9nT0Pnv0UA7a+q7Mo5ZnKOELvj3ImWPD0nbXG4YvWGnpD6rkitl02TQ1hFqUg36nJhpqpFL4RPtSen9CaWWX6C5SZtftiKZdhJsgl+NTYIFbcV4dJY+6m1F9kPn03sD7ci670qK0zalocwzO2l9yEntjY2OIoqa21HrRxYyrCluEiyjfmtS+fYL6eh0R5I6Taej3CyaocnYQC8qWtK0g49MsDUXZ3KSea+jytCJpDntFfRcwEV+h4iIiIiIiMifwZN5HaIsG0kXb8L6WU90lfH7YIlBH4RiyyxP3abEBk5Otrr3NTQZiE+4hdKUTRjTsxu6ddN9+vtHo+DRZSSlFsPMwROvT/JATvgqLJw5GWMGe6DLyCCkaspQVqZBdtJF3LR+Fp6VHcJy0AcI3TILnvo/Ql96FQkp+WjbxwvtzPl9TAoH737oormECxdLtHsk6nbo0KLcfGZQq5tCUlrMb1ej6RCMH+6AhL3fIq4UyI/cjYMPB+D1US1rvI+iyYhHwq1SpGwag568nt269Yd/dAEeXU4CU7UOaJARn4BbpSnYNKZnhd269fdHdMEjXE5KBdecotcCbF7shtNrP8W5rv/CpvefMfi7/KVXE5CS3xZ9vNqh0jQO8O7XBZpLF8CbppLSNCQm56K1uwfall/Azu/buyMsuH+b4FdjmGQrRS8s2LwYbqfX4tNzXfGvTe/jGa1yzKeer2OSRw7CVy3EzMljMNijC0YGpUJTxmKm/I0NiRXau7bm9ZVA1UQJi5ZOaCvV7oCZSgWlRINSjWm25tpQt+uAytBRQ91UgtLiOjlWREREREREpIE8mUkwStikAbAwl7IpQS1IzGFuUX60CEVsjmDVyxfzFy7EwvLP0rUIDlmFf7S3QFlGGKZ6eOAfH4UjPluOdt5TsHzZODjyGpboOoS01g7LKYaGTVQtpNppWgUScws2cWOTI41udiQxZ/Jp/1WOsYZVGOg7Cm0vh2NXTDYi9vyIoiHjMaK5AfMXFTEJrNDLd36lnuyzdG0wQlb9A0zVOlGkMxx85+vZbeFSrA0Owap/tNdNRtlk+dGjQvZfQtHD+3hY23ysmE322BVVTSNhfmI72MSRN40epWBzQ5hxxyuQQKGQ89YS9qtRTLSV5tEjFDI5qOgh7lcoV4aMsKnw8PgHPgqPR7a8HbynLMeycY5Vk0IihZSf8FYgYTrz/9THNFuza1nsVEEwJkVEREREREQamyczCTazg7OjFbJTL+F2xbqwUiRvmYEJyw7y23qYt4SLowr5Bdbo4zsJkybpPhOGuqO9Ww90sAVuhG3E7nuDsD72LP6760usXTobw5uX4CFrv6zMDHbOjrDKTsWlyg5RmrwFMyYsw8FbeovTLJxYXxa4kZhYsdiJo+BCAn5HGzi7VJ8RmYa87xsY0+46DoWuRegR4OU3hoGJXQPzli5wVOWjwLoPfHk9J02agKHu7eHWowNshTzGJmiVmKOliyNU+QWw7uNbYbdJE4bCvb0bejDDcc3l/bIC09emod+iRfC+sR4zlkchV9dAleYsnJhsFjeQmHifTSHLKcCFhN+BNs6oYRpmy44ucty6mITsiguKcOnydd1CNUG/GlfWJFvl/YIV09cird8iLPK+gfUzliOKU67sBsI27sa9QesRe/a/2PXlWiydPRzNSx5ytzp6+pmKabYWERERERER+WvwhMZlFQaOH4UWMZ9j8bYk5JaVITdpG/xXfo3fcq35c/Sxhs/E0bA/+ylmBR7DzSJAczcG66a8hAGjAhCdr3tyKym+i7S0B2wCo0HWb19hzvIf8IB72ljIehw4HqNaxODzxduQlMsmOblJ2Oa/El//lgtrG30z2GH4xGFQRQRidnAsstlsreDKd1i4LAz5vcfjNTdDzwBNQPYc3nitE65uXYsfZK9g/JCm/IFqWPtg4mh7nP10FgKP3WTSa3A3Zh2mvDQAowKiwVQ1ikQmh4zy8OCB7vsQrH0mYrT9WXw6KxDHdIZDzLopeGnAKARwhss9iWXT1+PmwJX4YsUKfLFyIG5tmIFlJ3K41iCTy0B5D6Btzm44Jg5TISJwNoJjs9lEtgBXvluIZWH56D3+NdQ0jQ1emTIWNsdX452t55GjKcT1Hz6E/55b/CRT2K9GEbRVLk4um471Nwdi5RcrsOKLlRh4awNmLDuBHO0TbQmK76Yh7QGTRpOF376ag+U/PNA+YTb1yyn0EbS1CZRe+hHBm/fibOVdg4iIiIiIiMjjgH83+M9Hk03Rq4aRs9KcZColSc2U5DzsY/rlPjvELYxTtqG3jugthtLco6jA4dTO0ozMZAqSW0hI0WYwLY3I1C4u02RF0OLnbcnCTEaWTRQks+1JEwIXkY9aTSNDuHM0lB29ioY5K8lcpiKl1IyUzsPoY65DftV++bdDMAEoYtlL5KiUkLlCxfpSUGvvuRR+TbfYjFsYp2w5jQ7xi6O4BWTxS91J6b6U3zZMSeIKek5mQe1mH9d+O0FtaO5FUeDwdmRpZkYyhZwsJApqM3gpRWRqNTW6MI4enaC5rnIylzel7u9HsR0auhcVSMPbWZIZs41CbkESRRsavDSCMjX36ejbnUjRfARtKf+aitIrtPmVZiTv9DZFMNM8OjGXXOXmJG/and6PKmKmiaBlLzmSUmJOChWTTdGavOeGE2+amjC/RS4fQm0UZiSVSUlq15v8RncjFf/tEIJ+NfrtENzltdvq/tG3qZOiOY3YcpVf2Kb79otm8k70dkQWZUUspudtLVi/ltREISPbnhMocJEPqdUjKYSzNbcwTtmSplU4uoh+ed+NlH1W0+/la98ebKXhSgfy28+dY8zW3MlcnCmp5bRDlf4viael7kpyXxqv3cz9egTJpb3I/0JtBhURERERERFpDCTcf/j58BOhNPsK4pMyoHHoBHc3e1QuWzOMJicNFxLTkSdvja492sNW/4KyXFw/fx7XC9Xo0LMbWqn4/fqUZuNKfBIyNA7o5O4GeyMdlmanIv5iJtCiE3p0sBOUTYiyO19jTOd/w+1QHD7uLagpctIuIDE9D/LWXdGjva3J/ZflpiHu/B8oa90Dz7nwT9Y1OUi7kIj0PDlad+2B9lUMZ4wy5KbF4fwfZWjdoxdcrLmn5qXITo2HzjQ90MFOuK3CzGScT82Hfddn0U5d8w8QRv0qSENsdR3nz19HoboDenZrBUMhU2fqbWsRERERERGRP4snPgl+OuD+tP0IcQFDMeTQMET9vBhd6vlWhYiIiIiIiIiISMMR1+r8CZTGLkUvK1t4/rsQ/1w1U5wAi4iIiIiIiIg8UYD/DzLxTyjwIsKLAAAAAElFTkSuQmCC;" vertex="1" parent="1">
          <mxGeometry x="530" y="30" width="705" height="96" as="geometry" />
        </mxCell>
        <mxCell id="bRsWOrYs7YfIksNsCnhD-2" value="PROGRAMADOR" style="whiteSpace=wrap;html=1;align=center;" vertex="1" parent="1">
          <mxGeometry x="610" y="230" width="100" height="40" as="geometry" />
        </mxCell>
        <mxCell id="bRsWOrYs7YfIksNsCnhD-3" value="EXAMEN" style="whiteSpace=wrap;html=1;align=center;" vertex="1" parent="1">
          <mxGeometry x="880" y="230" width="100" height="40" as="geometry" />
        </mxCell>
        <mxCell id="bRsWOrYs7YfIksNsCnhD-4" value="rinde" style="shape=rhombus;perimeter=rhombusPerimeter;whiteSpace=wrap;html=1;align=center;" vertex="1" parent="1">
          <mxGeometry x="757" y="230" width="70" height="40" as="geometry" />
        </mxCell>
        <mxCell id="bRsWOrYs7YfIksNsCnhD-5" value="sobre" style="shape=rhombus;perimeter=rhombusPerimeter;whiteSpace=wrap;html=1;align=center;" vertex="1" parent="1">
          <mxGeometry x="890" y="320" width="80" height="40" as="geometry" />
        </mxCell>
        <mxCell id="bRsWOrYs7YfIksNsCnhD-6" value="LENGUAJE" style="whiteSpace=wrap;html=1;align=center;" vertex="1" parent="1">
          <mxGeometry x="880" y="400" width="100" height="40" as="geometry" />
        </mxCell>
        <mxCell id="bRsWOrYs7YfIksNsCnhD-7" value="" style="endArrow=none;html=1;rounded=0;entryX=1;entryY=0.5;entryDx=0;entryDy=0;exitX=0;exitY=0.5;exitDx=0;exitDy=0;" edge="1" parent="1" source="bRsWOrYs7YfIksNsCnhD-4" target="bRsWOrYs7YfIksNsCnhD-2">
          <mxGeometry relative="1" as="geometry">
            <mxPoint x="810" y="120" as="sourcePoint" />
            <mxPoint x="970" y="120" as="targetPoint" />
          </mxGeometry>
        </mxCell>
        <mxCell id="bRsWOrYs7YfIksNsCnhD-8" value="(0,N)" style="resizable=0;html=1;whiteSpace=wrap;align=right;verticalAlign=bottom;" connectable="0" vertex="1" parent="bRsWOrYs7YfIksNsCnhD-7">
          <mxGeometry x="1" relative="1" as="geometry">
            <mxPoint x="30" as="offset" />
          </mxGeometry>
        </mxCell>
        <mxCell id="bRsWOrYs7YfIksNsCnhD-9" value="" style="endArrow=none;html=1;rounded=0;entryX=0;entryY=0.5;entryDx=0;entryDy=0;exitX=1;exitY=0.5;exitDx=0;exitDy=0;" edge="1" parent="1" source="bRsWOrYs7YfIksNsCnhD-4" target="bRsWOrYs7YfIksNsCnhD-3">
          <mxGeometry relative="1" as="geometry">
            <mxPoint x="730" y="170" as="sourcePoint" />
            <mxPoint x="890" y="170" as="targetPoint" />
          </mxGeometry>
        </mxCell>
        <mxCell id="bRsWOrYs7YfIksNsCnhD-10" value="(1,M)" style="resizable=0;html=1;whiteSpace=wrap;align=right;verticalAlign=bottom;" connectable="0" vertex="1" parent="bRsWOrYs7YfIksNsCnhD-9">
          <mxGeometry x="1" relative="1" as="geometry" />
        </mxCell>
        <mxCell id="bRsWOrYs7YfIksNsCnhD-11" value="" style="endArrow=none;html=1;rounded=0;entryX=0.5;entryY=1;entryDx=0;entryDy=0;exitX=0.5;exitY=0;exitDx=0;exitDy=0;" edge="1" parent="1" source="bRsWOrYs7YfIksNsCnhD-5" target="bRsWOrYs7YfIksNsCnhD-3">
          <mxGeometry relative="1" as="geometry">
            <mxPoint x="730" y="290" as="sourcePoint" />
            <mxPoint x="890" y="290" as="targetPoint" />
          </mxGeometry>
        </mxCell>
        <mxCell id="bRsWOrYs7YfIksNsCnhD-12" value="(1,M)" style="resizable=0;html=1;whiteSpace=wrap;align=right;verticalAlign=bottom;" connectable="0" vertex="1" parent="bRsWOrYs7YfIksNsCnhD-11">
          <mxGeometry x="1" relative="1" as="geometry">
            <mxPoint y="20" as="offset" />
          </mxGeometry>
        </mxCell>
        <mxCell id="bRsWOrYs7YfIksNsCnhD-13" value="" style="endArrow=none;html=1;rounded=0;exitX=0.5;exitY=1;exitDx=0;exitDy=0;entryX=0.5;entryY=0;entryDx=0;entryDy=0;" edge="1" parent="1" source="bRsWOrYs7YfIksNsCnhD-5" target="bRsWOrYs7YfIksNsCnhD-6">
          <mxGeometry relative="1" as="geometry">
            <mxPoint x="730" y="350" as="sourcePoint" />
            <mxPoint x="890" y="350" as="targetPoint" />
          </mxGeometry>
        </mxCell>
        <mxCell id="bRsWOrYs7YfIksNsCnhD-14" value="(1,1)" style="resizable=0;html=1;whiteSpace=wrap;align=right;verticalAlign=bottom;" connectable="0" vertex="1" parent="bRsWOrYs7YfIksNsCnhD-13">
          <mxGeometry x="1" relative="1" as="geometry" />
        </mxCell>
        <mxCell id="bRsWOrYs7YfIksNsCnhD-15" value="ID_programador" style="ellipse;whiteSpace=wrap;html=1;align=center;" vertex="1" parent="1">
          <mxGeometry x="550" y="160" width="100" height="40" as="geometry" />
        </mxCell>
        <mxCell id="bRsWOrYs7YfIksNsCnhD-16" value="DNI" style="ellipse;whiteSpace=wrap;html=1;align=center;" vertex="1" parent="1">
          <mxGeometry x="470" y="210" width="100" height="40" as="geometry" />
        </mxCell>
        <mxCell id="bRsWOrYs7YfIksNsCnhD-17" value="Nombre" style="ellipse;whiteSpace=wrap;html=1;align=center;" vertex="1" parent="1">
          <mxGeometry x="480" y="270" width="100" height="40" as="geometry" />
        </mxCell>
        <mxCell id="bRsWOrYs7YfIksNsCnhD-18" value="Apellido" style="ellipse;whiteSpace=wrap;html=1;align=center;" vertex="1" parent="1">
          <mxGeometry x="600" y="300" width="100" height="40" as="geometry" />
        </mxCell>
        <mxCell id="bRsWOrYs7YfIksNsCnhD-19" value="" style="endArrow=none;html=1;rounded=0;exitX=1;exitY=0.5;exitDx=0;exitDy=0;entryX=0;entryY=0.5;entryDx=0;entryDy=0;" edge="1" parent="1" source="bRsWOrYs7YfIksNsCnhD-16" target="bRsWOrYs7YfIksNsCnhD-2">
          <mxGeometry relative="1" as="geometry">
            <mxPoint x="550" y="250" as="sourcePoint" />
            <mxPoint x="710" y="250" as="targetPoint" />
          </mxGeometry>
        </mxCell>
        <mxCell id="bRsWOrYs7YfIksNsCnhD-20" value="" style="endArrow=none;html=1;rounded=0;exitX=1;exitY=1;exitDx=0;exitDy=0;entryX=0.5;entryY=0;entryDx=0;entryDy=0;" edge="1" parent="1" source="bRsWOrYs7YfIksNsCnhD-15" target="bRsWOrYs7YfIksNsCnhD-2">
          <mxGeometry relative="1" as="geometry">
            <mxPoint x="550" y="250" as="sourcePoint" />
            <mxPoint x="710" y="250" as="targetPoint" />
          </mxGeometry>
        </mxCell>
        <mxCell id="bRsWOrYs7YfIksNsCnhD-21" value="" style="endArrow=none;html=1;rounded=0;exitX=1;exitY=0.5;exitDx=0;exitDy=0;entryX=0;entryY=1;entryDx=0;entryDy=0;" edge="1" parent="1" source="bRsWOrYs7YfIksNsCnhD-17" target="bRsWOrYs7YfIksNsCnhD-2">
          <mxGeometry relative="1" as="geometry">
            <mxPoint x="550" y="250" as="sourcePoint" />
            <mxPoint x="710" y="250" as="targetPoint" />
          </mxGeometry>
        </mxCell>
        <mxCell id="bRsWOrYs7YfIksNsCnhD-22" value="" style="endArrow=none;html=1;rounded=0;exitX=0.5;exitY=1;exitDx=0;exitDy=0;entryX=0.5;entryY=0;entryDx=0;entryDy=0;" edge="1" parent="1" source="bRsWOrYs7YfIksNsCnhD-2" target="bRsWOrYs7YfIksNsCnhD-18">
          <mxGeometry relative="1" as="geometry">
            <mxPoint x="550" y="330" as="sourcePoint" />
            <mxPoint x="710" y="330" as="targetPoint" />
          </mxGeometry>
        </mxCell>
        <mxCell id="bRsWOrYs7YfIksNsCnhD-23" value="Email" style="ellipse;whiteSpace=wrap;html=1;align=center;" vertex="1" parent="1">
          <mxGeometry x="670" y="150" width="100" height="40" as="geometry" />
        </mxCell>
        <mxCell id="bRsWOrYs7YfIksNsCnhD-24" value="" style="endArrow=none;html=1;rounded=0;entryX=0.5;entryY=1;entryDx=0;entryDy=0;exitX=0.75;exitY=0;exitDx=0;exitDy=0;" edge="1" parent="1" source="bRsWOrYs7YfIksNsCnhD-2" target="bRsWOrYs7YfIksNsCnhD-23">
          <mxGeometry relative="1" as="geometry">
            <mxPoint x="700" y="250" as="sourcePoint" />
            <mxPoint x="860" y="250" as="targetPoint" />
          </mxGeometry>
        </mxCell>
        <mxCell id="bRsWOrYs7YfIksNsCnhD-25" value="Cant_ej" style="ellipse;whiteSpace=wrap;html=1;align=center;" vertex="1" parent="1">
          <mxGeometry x="930" y="150" width="100" height="40" as="geometry" />
        </mxCell>
        <mxCell id="bRsWOrYs7YfIksNsCnhD-26" value="Nivel" style="ellipse;whiteSpace=wrap;html=1;align=center;" vertex="1" parent="1">
          <mxGeometry x="1040" y="170" width="100" height="40" as="geometry" />
        </mxCell>
        <mxCell id="bRsWOrYs7YfIksNsCnhD-27" value="Fecha_creacion" style="ellipse;whiteSpace=wrap;html=1;align=center;" vertex="1" parent="1">
          <mxGeometry x="1050" y="230" width="100" height="40" as="geometry" />
        </mxCell>
        <mxCell id="bRsWOrYs7YfIksNsCnhD-28" value="Texto" style="ellipse;whiteSpace=wrap;html=1;align=center;" vertex="1" parent="1">
          <mxGeometry x="1020" y="280" width="100" height="40" as="geometry" />
        </mxCell>
        <mxCell id="bRsWOrYs7YfIksNsCnhD-29" value="ID_examen" style="ellipse;whiteSpace=wrap;html=1;align=center;" vertex="1" parent="1">
          <mxGeometry x="847.5" y="175" width="70" height="30" as="geometry" />
        </mxCell>
        <mxCell id="bRsWOrYs7YfIksNsCnhD-30" value="" style="endArrow=none;html=1;rounded=0;entryX=0;entryY=0.5;entryDx=0;entryDy=0;exitX=1;exitY=0;exitDx=0;exitDy=0;" edge="1" parent="1" source="bRsWOrYs7YfIksNsCnhD-3" target="bRsWOrYs7YfIksNsCnhD-26">
          <mxGeometry relative="1" as="geometry">
            <mxPoint x="870" y="200" as="sourcePoint" />
            <mxPoint x="1030" y="200" as="targetPoint" />
          </mxGeometry>
        </mxCell>
        <mxCell id="bRsWOrYs7YfIksNsCnhD-31" value="" style="endArrow=none;html=1;rounded=0;entryX=0.5;entryY=1;entryDx=0;entryDy=0;exitX=0.75;exitY=0;exitDx=0;exitDy=0;" edge="1" parent="1" source="bRsWOrYs7YfIksNsCnhD-3" target="bRsWOrYs7YfIksNsCnhD-25">
          <mxGeometry relative="1" as="geometry">
            <mxPoint x="870" y="200" as="sourcePoint" />
            <mxPoint x="1030" y="200" as="targetPoint" />
          </mxGeometry>
        </mxCell>
        <mxCell id="bRsWOrYs7YfIksNsCnhD-32" value="" style="endArrow=none;html=1;rounded=0;exitX=0.5;exitY=1;exitDx=0;exitDy=0;entryX=0.25;entryY=0;entryDx=0;entryDy=0;" edge="1" parent="1" source="bRsWOrYs7YfIksNsCnhD-29" target="bRsWOrYs7YfIksNsCnhD-3">
          <mxGeometry relative="1" as="geometry">
            <mxPoint x="870" y="200" as="sourcePoint" />
            <mxPoint x="1030" y="200" as="targetPoint" />
          </mxGeometry>
        </mxCell>
        <mxCell id="bRsWOrYs7YfIksNsCnhD-33" value="" style="endArrow=none;html=1;rounded=0;entryX=0;entryY=0.5;entryDx=0;entryDy=0;exitX=1;exitY=0.25;exitDx=0;exitDy=0;" edge="1" parent="1" source="bRsWOrYs7YfIksNsCnhD-3" target="bRsWOrYs7YfIksNsCnhD-27">
          <mxGeometry relative="1" as="geometry">
            <mxPoint x="870" y="200" as="sourcePoint" />
            <mxPoint x="1030" y="200" as="targetPoint" />
          </mxGeometry>
        </mxCell>
        <mxCell id="bRsWOrYs7YfIksNsCnhD-34" value="" style="endArrow=none;html=1;rounded=0;entryX=0;entryY=0;entryDx=0;entryDy=0;exitX=1;exitY=1;exitDx=0;exitDy=0;" edge="1" parent="1" source="bRsWOrYs7YfIksNsCnhD-3" target="bRsWOrYs7YfIksNsCnhD-28">
          <mxGeometry relative="1" as="geometry">
            <mxPoint x="870" y="200" as="sourcePoint" />
            <mxPoint x="1030" y="200" as="targetPoint" />
          </mxGeometry>
        </mxCell>
        <mxCell id="bRsWOrYs7YfIksNsCnhD-35" value="Nombre_leng" style="ellipse;whiteSpace=wrap;html=1;align=center;" vertex="1" parent="1">
          <mxGeometry x="880" y="480" width="100" height="40" as="geometry" />
        </mxCell>
        <mxCell id="bRsWOrYs7YfIksNsCnhD-36" value="" style="endArrow=none;html=1;rounded=0;exitX=0.5;exitY=1;exitDx=0;exitDy=0;entryX=0.5;entryY=0;entryDx=0;entryDy=0;" edge="1" parent="1" source="bRsWOrYs7YfIksNsCnhD-6" target="bRsWOrYs7YfIksNsCnhD-35">
          <mxGeometry relative="1" as="geometry">
            <mxPoint x="870" y="390" as="sourcePoint" />
            <mxPoint x="1030" y="390" as="targetPoint" />
          </mxGeometry>
        </mxCell>
        <mxCell id="bRsWOrYs7YfIksNsCnhD-37" value="Calificacion" style="ellipse;whiteSpace=wrap;html=1;align=center;" vertex="1" parent="1">
          <mxGeometry x="740" y="290" width="100" height="40" as="geometry" />
        </mxCell>
        <mxCell id="bRsWOrYs7YfIksNsCnhD-38" value="" style="endArrow=none;html=1;rounded=0;exitX=0.5;exitY=1;exitDx=0;exitDy=0;entryX=0.5;entryY=0;entryDx=0;entryDy=0;" edge="1" parent="1" source="bRsWOrYs7YfIksNsCnhD-4" target="bRsWOrYs7YfIksNsCnhD-37">
          <mxGeometry relative="1" as="geometry">
            <mxPoint x="870" y="300" as="sourcePoint" />
            <mxPoint x="1030" y="300" as="targetPoint" />
          </mxGeometry>
        </mxCell>
      </root>
    </mxGraphModel>
  </diagram>
</mxfile>
